<?xml version="1.0" encoding="utf-8"?>
<!-- Generator: Adobe Illustrator 24.0.1, SVG Export Plug-In . SVG Version: 6.00 Build 0)  -->
<svg version="1.1" id="Layer_1" xmlns="http://www.w3.org/2000/svg" xmlns:xlink="http://www.w3.org/1999/xlink" x="0px" y="0px"
	 viewBox="0 0 15 15" style="enable-background:new 0 0 15 15;" xml:space="preserve">
<style type="text/css">
	.st0{fill:#DA1729;}
	.st1{fill:none;stroke:#DA1729;stroke-width:0.8972;stroke-miterlimit:10;}
	.st2{fill:none;}
</style>
<g>
	<g>
		<path class="st0" d="M11.3,14.6H3.7c-0.7,0-1.2-0.5-1.2-1.2V7.5c0-0.7,0.5-1.2,1.2-1.2h7.5c0.7,0,1.2,0.5,1.2,1.2v5.9
			C12.5,14,11.9,14.6,11.3,14.6z M3.7,6.9c-0.3,0-0.6,0.3-0.6,0.6v5.9c0,0.3,0.3,0.6,0.6,0.6h7.5c0.3,0,0.6-0.3,0.6-0.6V7.5
			c0-0.3-0.3-0.6-0.6-0.6H3.7z"/>
	</g>
	<g>
		<path class="st0" d="M4.3,4.7C4,4.7,3.8,4.5,3.8,4.2c0-1,0.4-1.9,1.1-2.7c0.7-0.7,1.6-1.1,2.6-1.1c1,0,1.9,0.4,2.7,1.1
			c0.7,0.7,1.1,1.6,1.1,2.6c0,0.2-0.2,0.5-0.4,0.5c0,0,0,0,0,0c-0.2,0-0.4-0.2-0.4-0.4c0-0.8-0.3-1.5-0.9-2C9,1.6,8.3,1.3,7.5,1.3
			c-1.6,0-2.8,1.3-2.8,2.9C4.7,4.5,4.5,4.7,4.3,4.7C4.3,4.7,4.3,4.7,4.3,4.7z"/>
	</g>
	<g>
		<path class="st1" d="M6.5,5.9"/>
	</g>
	<g>
		<rect x="3.8" y="4.2" class="st0" width="0.9" height="2.7"/>
	</g>
	<g>
		<path class="st0" d="M10.9,13.7H4.1c-0.4,0-0.6-0.3-0.6-0.6V7.8c0-0.4,0.3-0.6,0.6-0.6h6.8c0.4,0,0.6,0.3,0.6,0.6V13
			C11.5,13.4,11.3,13.7,10.9,13.7z M4.1,7.5c-0.2,0-0.3,0.2-0.3,0.3V13c0,0.2,0.2,0.3,0.3,0.3h6.8c0.2,0,0.3-0.2,0.3-0.3V7.8
			c0-0.2-0.2-0.3-0.3-0.3H4.1z"/>
	</g>
	<g>
		<polygon class="st2" points="6.8,12.3 6.8,12.5 8,12.5 8,11.3 8,11.3 8,12.3 		"/>
		<path class="st0" d="M8.9,9.8c0-0.8-0.7-1.5-1.5-1.5C6.6,8.3,5.9,9,5.9,9.8c0,0.5,0.2,0.9,0.6,1.2v0h0.3v-0.2h0
			c-0.4-0.2-0.6-0.6-0.6-1c0-0.7,0.5-1.2,1.2-1.2s1.2,0.5,1.2,1.2c0,0.5-0.3,0.8-0.6,1h0V11h0.3v0C8.6,10.7,8.9,10.3,8.9,9.8z"/>
		<path class="st0" d="M8,11.3L8,11.3l0,1.1H6.8v-0.1h0v-1.1c-0.1,0-0.2-0.1-0.3-0.2v1.7h1.7V11c-0.1,0.1-0.2,0.1-0.3,0.2V11.3z"/>
		<path class="st0" d="M6.8,11H6.5v0c0.1,0.1,0.2,0.1,0.3,0.2V11z"/>
		<path class="st0" d="M8,11v0.2c0.1,0,0.2-0.1,0.3-0.2v0H8z"/>
		<path class="st0" d="M7.4,9C6.9,9,6.5,9.3,6.5,9.8c0,0.4,0.2,0.7,0.5,0.8v-0.4h0.6v0.4c0.3-0.1,0.5-0.4,0.5-0.8
			C8.2,9.3,7.8,9,7.4,9z"/>
		<path class="st0" d="M7.7,10.6c-0.1,0-0.2,0.1-0.3,0.1c-0.1,0-0.2,0-0.3-0.1v0.3h0.6V10.6z"/>
		<path class="st0" d="M7.7,10.6v-0.4H7.1v0.4c0.1,0,0.2,0.1,0.3,0.1C7.5,10.6,7.6,10.6,7.7,10.6z"/>
		<polygon class="st0" points="7.1,11.3 7.1,12.2 7.7,12.2 7.7,11.3 7.4,11.3 		"/>
		<path class="st0" d="M7.7,10.9L7.7,10.9l-0.6-0.1v0.1C7.2,11,7.3,11,7.4,11C7.5,11,7.6,11,7.7,10.9z"/>
		<path class="st0" d="M7.7,11L7.7,11c-0.1,0-0.2,0-0.3,0H7.7z"/>
		<path class="st0" d="M7.1,10.9L7.1,10.9L7.4,11C7.3,11,7.2,11,7.1,10.9z"/>
		<path class="st0" d="M7.4,11.3c-0.1,0-0.2,0-0.3,0v0H7.4z"/>
		<path class="st0" d="M7.7,11.3L7.7,11.3c-0.1,0-0.2,0-0.3,0H7.7z"/>
		<path class="st0" d="M7.7,11.3V11H7.4H7.1v0.3c0.1,0,0.2,0,0.3,0C7.5,11.3,7.6,11.3,7.7,11.3z"/>
	</g>
</g>
</svg>
