<?xml version="1.0" encoding="utf-8"?>
<!-- Generator: Adobe Illustrator 24.0.1, SVG Export Plug-In . SVG Version: 6.00 Build 0)  -->
<svg version="1.1" id="Layer_1" xmlns="http://www.w3.org/2000/svg" xmlns:xlink="http://www.w3.org/1999/xlink" x="0px" y="0px"
	 viewBox="0 0 15 15" style="enable-background:new 0 0 15 15;" xml:space="preserve">
<style type="text/css">
	.st0{fill:#DA112A;}
</style>
<g>
	<path class="st0" d="M2.2,9.1c0.2,0,0.4-0.2,0.4-0.4V6.4C2.5,6.2,2.4,6,2.2,6S1.8,6.2,1.8,6.4v2.3C1.8,8.9,2,9.1,2.2,9.1z"/>
	<path class="st0" d="M4.2,4.4C4.2,4.2,4,4,3.8,4S3.4,4.2,3.4,4.4V10l0.8-0.8V4.4z"/>
	<path class="st0" d="M4.9,11.6c0,0.3,0.2,0.5,0.4,0.5s0.4-0.2,0.4-0.4v-1L4.9,11.6z"/>
	<path class="st0" d="M5.6,3.3c0-0.2-0.2-0.4-0.4-0.4S4.9,3.1,4.9,3.3v5.2l0.7-0.7V3.3z"/>
	<path class="st0" d="M6.3,14.3c0,0.2,0.2,0.4,0.4,0.4c0.2,0,0.4-0.2,0.4-0.4v-5L6.3,10V14.3z"/>
	<path class="st0" d="M7.1,0.7c0-0.2-0.2-0.4-0.4-0.4c-0.2,0-0.4,0.2-0.4,0.4V7l0.8-0.8V0.7z"/>
	<path class="st0" d="M7.8,13.4c0,0.2,0.2,0.4,0.4,0.4s0.4-0.2,0.4-0.4V7.8L7.8,8.6V13.4z"/>
	<path class="st0" d="M8.5,1.6c0-0.2-0.2-0.4-0.4-0.4S7.7,1.4,7.7,1.6v4l0.8-0.8V1.6z"/>
	<path class="st0" d="M9.6,3.1c-0.2,0-0.4,0.2-0.4,0.4v0.7L10,3.4C9.9,3.2,9.8,3.1,9.6,3.1z"/>
	<path class="st0" d="M9.2,11.5c0,0.2,0.2,0.4,0.4,0.4s0.4-0.2,0.4-0.4V6.4L9.2,7.1V11.5z"/>
	<path class="st0" d="M12.7,6c-0.2,0-0.4,0.2-0.4,0.4v2.3c0,0.2,0.2,0.4,0.4,0.4s0.4-0.2,0.4-0.4V6.4C13.1,6.2,12.9,6,12.7,6z"/>
</g>
<rect x="-0.8" y="6.9" transform="matrix(0.7175 -0.6966 0.6966 0.7175 -3.0927 7.2929)" class="st0" width="16.6" height="1.1"/>
<path class="st0" d="M10.7,6.1"/>
<path class="st0" d="M10.7,6.1v4.3c0,0.2,0.2,0.4,0.4,0.4s0.4-0.2,0.4-0.4V5.2L10.7,6.1z"/>
</svg>
