<?xml version="1.0" encoding="utf-8"?>
<!-- Generator: Adobe Illustrator 24.0.1, SVG Export Plug-In . SVG Version: 6.00 Build 0)  -->
<svg version="1.1" id="Layer_1" xmlns="http://www.w3.org/2000/svg" xmlns:xlink="http://www.w3.org/1999/xlink" x="0px" y="0px"
	 viewBox="0 0 15 15" style="enable-background:new 0 0 15 15;" xml:space="preserve">
<style type="text/css">
	.st0{display:none;fill:none;stroke:#DA112A;stroke-miterlimit:10;}
	.st1{display:none;}
	.st2{display:inline;fill:#DA112A;}
	.st3{font-family:'ShareTech-Regular';}
	.st4{font-size:4.9893px;}
	.st5{display:inline;fill:none;stroke:#DA112A;stroke-width:0.219;stroke-linecap:round;stroke-miterlimit:10;}
	.st6{fill:#DA1729;}
	.st7{fill:#DA1729;stroke:#DA1729;stroke-width:0.1541;stroke-miterlimit:10;}
</style>
<circle class="st0" cx="7.5" cy="7.5" r="6.6"/>
<g class="st1">
	<text transform="matrix(1 0 0 1 4.0269 9.5495)" class="st2 st3 st4">ADS</text>
	<text transform="matrix(1 0 0 1 4.0269 9.5495)" class="st5 st3 st4">ADS</text>
</g>
<g class="st1">
	<polygon class="st2" points="3.5,12.6 5.5,10.7 4,10.7 2.9,11.9 	"/>
	<polygon class="st2" points="12.4,3.8 11.7,3.1 9.8,4.9 11.3,4.9 	"/>
</g>
<g>
	<g>
		<path class="st6" d="M9.3,14.7H5.7c-0.4,0-0.8-0.2-1.1-0.4l-3.9-3.9c-0.3-0.3-0.4-0.7-0.4-1.1V5.7c0-0.4,0.2-0.8,0.4-1.1l3.9-3.9
			c0.3-0.3,0.7-0.4,1.1-0.4h3.6c0.4,0,0.8,0.2,1.1,0.4l3.9,3.9c0.3,0.3,0.4,0.7,0.4,1.1v3.6c0,0.4-0.2,0.8-0.4,1.1l-3.9,3.9
			C10.1,14.5,9.7,14.7,9.3,14.7z M5.1,1.2L1.2,5.1C1,5.2,0.9,5.5,0.9,5.7v3.6c0,0.2,0.1,0.5,0.3,0.6l3.9,3.9
			c0.2,0.2,0.4,0.3,0.6,0.3h3.6c0.2,0,0.5-0.1,0.6-0.3l3.9-3.9c0.2-0.2,0.3-0.4,0.3-0.6V5.7c0-0.2-0.1-0.5-0.3-0.6L9.9,1.2
			C9.8,1,9.5,0.9,9.3,0.9H5.7C5.5,0.9,5.2,1,5.1,1.2L5.1,1.2z"/>
	</g>
	<g>
		<path class="st6" d="M8.9,13.4H6.1c-0.4,0-0.7-0.1-0.9-0.4L2,9.9C1.7,9.6,1.6,9.3,1.6,8.9V6.1c0-0.4,0.1-0.7,0.4-0.9L5.1,2
			c0.3-0.3,0.6-0.4,0.9-0.4h2.8c0.4,0,0.7,0.1,0.9,0.4L13,5.1c0.3,0.3,0.4,0.6,0.4,0.9v2.8c0,0.4-0.1,0.7-0.4,0.9L9.9,13
			C9.6,13.3,9.3,13.4,8.9,13.4z M5.4,2.2L2.2,5.4C2,5.5,1.9,5.8,1.9,6.1v2.8c0,0.3,0.1,0.5,0.3,0.7l3.1,3.1c0.2,0.2,0.5,0.3,0.7,0.3
			h2.8c0.3,0,0.5-0.1,0.7-0.3l3.1-3.1c0.2-0.2,0.3-0.5,0.3-0.7V6.1c0-0.3-0.1-0.5-0.3-0.7L9.6,2.2C9.5,2,9.2,1.9,8.9,1.9H6.1
			C5.8,1.9,5.5,2,5.4,2.2L5.4,2.2z"/>
	</g>
	<g>
		<path class="st7" d="M10.5,10.6c-0.2,0.1-0.5,0.2-0.9,0.2H8.3V7.2h1.2c0.4,0,0.7,0.1,0.9,0.2c0.2,0.1,0.3,0.3,0.3,0.6V10
			C10.7,10.3,10.6,10.5,10.5,10.6z M10,7.7C9.9,7.7,9.8,7.6,9.7,7.6H8.9v2.8h0.8c0.2,0,0.3,0,0.4-0.1s0.1-0.2,0.1-0.3V8
			C10.2,7.9,10.1,7.8,10,7.7z"/>
	</g>
	<g>
		<path class="st7" d="M6.4,7.7L6.1,6.8H4.9L4.6,7.7H4l1.1-3.5h0.7L7,7.7H6.4z M5.5,4.6L5,6.5H6L5.5,4.6z"/>
	</g>
	<g>
		<rect x="2.7" y="7.1" transform="matrix(0.7072 -0.707 0.707 0.7072 -3.1491 7.5417)" class="st6" width="9.6" height="0.9"/>
	</g>
</g>
</svg>
