<?xml version="1.0" encoding="utf-8"?>
<!-- Generator: Adobe Illustrator 23.0.6, SVG Export Plug-In . SVG Version: 6.00 Build 0)  -->
<svg version="1.1" id="Layer_1" xmlns="http://www.w3.org/2000/svg" xmlns:xlink="http://www.w3.org/1999/xlink" x="0px" y="0px"
	 viewBox="0 0 15 15" style="enable-background:new 0 0 15 15;" xml:space="preserve">
<style type="text/css">
	.st0{fill:#DA1F2B;}
</style>
<g>
	<g>
		<path class="st0" d="M9.1,7.5V6.9H8.5c-0.6,0-1.1-0.5-1.2-1.1l-1,1C6.1,7,5.8,7,5.6,6.8L3.9,5.1c-0.1-0.1-0.4-0.1-0.5,0L0.9,7.6
			C0.7,7.7,0.7,8,0.9,8.1l2.3,2.3l2.5,2.5c0.1,0.1,0.4,0.1,0.5,0l2.5-2.5l1.7-1.7h-0.2C9.6,8.7,9.1,8.2,9.1,7.5z"/>
		<path class="st0" d="M13,4.6h-1.4c-0.1,0-0.2-0.1-0.2-0.2V3c0-0.1-0.1-0.2-0.2-0.2h-1c-0.1,0-0.2,0.1-0.2,0.2v1.4
			c0,0.1-0.1,0.2-0.2,0.2H8.5c-0.1,0-0.2,0.1-0.2,0.2v1c0,0.1,0.1,0.2,0.2,0.2h1.4c0.1,0,0.2,0.1,0.2,0.2v1.4c0,0.1,0.1,0.2,0.2,0.2
			h1c0.1,0,0.2-0.1,0.2-0.2V6.1c0-0.1,0.1-0.2,0.2-0.2H13c0.1,0,0.2-0.1,0.2-0.2v-1C13.2,4.7,13.1,4.6,13,4.6z"/>
		<path class="st0" d="M14.1,7.1h-0.5v1.8c0,0.1,0,0.1-0.1,0.1h-1.8v0.5H14c0.1,0,0.1-0.1,0.1-0.1L14.1,7.1z"/>
		<path class="st0" d="M9.1,1.8H6.9c-0.1,0-0.1,0-0.1,0.1l0,2.3h0.5V2.4c0-0.1,0-0.1,0.1-0.1h1.8V1.8z"/>
	</g>
</g>
</svg>
