<?xml version="1.0" encoding="utf-8"?>
<!-- Generator: Adobe Illustrator 24.0.1, SVG Export Plug-In . SVG Version: 6.00 Build 0)  -->
<svg version="1.1" id="Layer_1" xmlns="http://www.w3.org/2000/svg" xmlns:xlink="http://www.w3.org/1999/xlink" x="0px" y="0px"
	 viewBox="0 0 100 60" style="enable-background:new 0 0 100 60;" xml:space="preserve">
<style type="text/css">
	.st0{fill:#DB192B;}
	.st1{fill:none;stroke:#DB192B;stroke-width:0.9269;stroke-miterlimit:10;}
</style>
<g>
	<g>
		<path class="st0" d="M75,43.9V55H63.9V43.9H75 M76,43H63v13h13V43L76,43z"/>
	</g>
	<g>
		<path class="st0" d="M23.1,43.9V55H12V43.9H23.1 M24,43h-13v13h13V43L24,43z"/>
	</g>
	<g>
		<path class="st0" d="M36.1,30.9V42H25V30.9H36.1 M37,30H24v13h13V30L37,30z"/>
	</g>
	<g>
		<path class="st0" d="M23.1,30.9V42H12V30.9H23.1 M24,30h-13v13h13V30L24,30z"/>
	</g>
	<g>
		<path class="st0" d="M75,43.9V55H63.9V43.9H75 M76,43H63v13h13V43L76,43z"/>
	</g>
	<g>
		<path class="st0" d="M23.1,43.9V55H12V43.9H23.1 M24,43h-13v13h13V43L24,43z"/>
	</g>
	<g>
		<path class="st0" d="M36.1,30.9V42H25V30.9H36.1 M37,30H24v13h13V30L37,30z"/>
	</g>
	<g>
		<path class="st0" d="M23.1,30.9V42H12V30.9H23.1 M24,30h-13v13h13V30L24,30z"/>
	</g>
	<g>
		<path class="st0" d="M62,18v11.1H50.9V18H62 M63,17H50v13h13V17L63,17z"/>
	</g>
	<g>
		<path class="st0" d="M23.1,18v11.1H12V18H23.1 M24,17h-13v13h13V17L24,17z"/>
	</g>
	<g>
		<path class="st0" d="M62,5v11.1H50.9V5H62 M63,4H50v13h13V4L63,4z"/>
	</g>
	<path class="st0" d="M20.5,5.9h-5.8c-1,0-1.7,0.8-1.7,1.7v5.5c0,1,0.8,1.7,1.7,1.7h5.8c1,0,1.7-0.8,1.7-1.7V7.6
		C22.2,6.7,21.4,5.9,20.5,5.9z"/>
	<path class="st0" d="M33.4,5.9h-5.8c-1,0-1.7,0.8-1.7,1.7v5.5c0,1,0.8,1.7,1.7,1.7h5.8c1,0,1.7-0.8,1.7-1.7V7.6
		C35.2,6.7,34.4,5.9,33.4,5.9z"/>
	<path class="st0" d="M33.4,18.9h-5.8c-1,0-1.7,0.8-1.7,1.7v5.5c0,1,0.8,1.7,1.7,1.7h5.8c1,0,1.7-0.8,1.7-1.7v-5.5
		C35.2,19.7,34.4,18.9,33.4,18.9z"/>
	<path class="st0" d="M46.4,5.9h-5.8c-1,0-1.7,0.8-1.7,1.7v5.5c0,1,0.8,1.7,1.7,1.7h5.8c1,0,1.7-0.8,1.7-1.7V7.6
		C48.1,6.7,47.4,5.9,46.4,5.9z"/>
	<path class="st0" d="M33.4,44.8h-5.8c-1,0-1.7,0.8-1.7,1.7v5.5c0,1,0.8,1.7,1.7,1.7h5.8c1,0,1.7-0.8,1.7-1.7v-5.5
		C35.2,45.6,34.4,44.8,33.4,44.8z"/>
	<path class="st0" d="M46.4,44.8h-5.8c-1,0-1.7,0.8-1.7,1.7v5.5c0,1,0.8,1.7,1.7,1.7h5.8c1,0,1.7-0.8,1.7-1.7v-5.5
		C48.1,45.6,47.4,44.8,46.4,44.8z"/>
	<path class="st0" d="M59.4,44.8h-5.8c-1,0-1.7,0.8-1.7,1.7v5.5c0,1,0.8,1.7,1.7,1.7h5.8c1,0,1.7-0.8,1.7-1.7v-5.5
		C61.1,45.6,60.3,44.8,59.4,44.8z"/>
	<path class="st0" d="M59.4,31.9h-5.8c-1,0-1.7,0.8-1.7,1.7v5.5c0,1,0.8,1.7,1.7,1.7h5.8c1,0,1.7-0.8,1.7-1.7v-5.5
		C61.1,32.6,60.3,31.9,59.4,31.9z"/>
	<path class="st0" d="M72.4,18.9h-5.8c-1,0-1.7,0.8-1.7,1.7v5.5c0,1,0.8,1.7,1.7,1.7h5.8c1,0,1.7-0.8,1.7-1.7v-5.5
		C74.1,19.7,73.3,18.9,72.4,18.9z"/>
	<path class="st0" d="M72.4,5.9h-5.8c-1,0-1.7,0.8-1.7,1.7v5.5c0,1,0.8,1.7,1.7,1.7h5.8c1,0,1.7-0.8,1.7-1.7V7.6
		C74.1,6.7,73.3,5.9,72.4,5.9z"/>
	<path class="st0" d="M85.3,18.9h-5.8c-1,0-1.7,0.8-1.7,1.7v5.5c0,1,0.8,1.7,1.7,1.7h5.8c1,0,1.7-0.8,1.7-1.7v-5.5
		C87.1,19.7,86.3,18.9,85.3,18.9z"/>
	<path class="st0" d="M85.3,5.9h-5.8c-1,0-1.7,0.8-1.7,1.7v5.5c0,1,0.8,1.7,1.7,1.7h5.8c1,0,1.7-0.8,1.7-1.7V7.6
		C87.1,6.7,86.3,5.9,85.3,5.9z"/>
	<g>
		<path class="st0" d="M75,30.9V42H63.9V30.9H75 M76,30H63v13h13V30L76,30z"/>
	</g>
	<g>
		<path class="st0" d="M75,30.9V42H63.9V30.9H75 M76,30H63v13h13V30L76,30z"/>
	</g>
	<g>
		<path class="st0" d="M49.1,30.9V42H38V30.9H49.1 M50,30H37v13h13V30L50,30z"/>
	</g>
	<g>
		<path class="st0" d="M49.1,30.9V42H38V30.9H49.1 M50,30H37v13h13V30L50,30z"/>
	</g>
	<g>
		<path class="st0" d="M49.1,18v11.1H38V18H49.1 M50,17H37v13h13V17L50,17z"/>
	</g>
	<g>
		<path class="st0" d="M49.1,18v11.1H38V18H49.1 M50,17H37v13h13V17L50,17z"/>
	</g>
	<g>
		<path class="st0" d="M88,43.9V55H76.9V43.9H88 M88.9,43H76v13h13V43L88.9,43z"/>
	</g>
	<g>
		<path class="st0" d="M88,43.9V55H76.9V43.9H88 M88.9,43H76v13h13V43L88.9,43z"/>
	</g>
	<g>
		<path class="st0" d="M88,30.9V42H76.9V30.9H88 M88.9,30H76v13h13V30L88.9,30z"/>
	</g>
	<g>
		<path class="st0" d="M88,30.9V42H76.9V30.9H88 M88.9,30H76v13h13V30L88.9,30z"/>
	</g>
	<line class="st1" x1="11.5" y1="39.5" x2="49.5" y2="39.5"/>
	<line class="st1" x1="37.5" y1="26.5" x2="62.5" y2="26.5"/>
	<line class="st1" x1="11.5" y1="52.4" x2="23.6" y2="52.4"/>
	<line class="st1" x1="63.4" y1="52.4" x2="88.5" y2="52.4"/>
	<line class="st1" x1="63.4" y1="39.5" x2="88.5" y2="39.5"/>
	<line class="st1" x1="11.5" y1="26.5" x2="23.6" y2="26.5"/>
	<line class="st1" x1="50.5" y1="13.5" x2="62.5" y2="13.5"/>
</g>
</svg>
