<?xml version="1.0" encoding="utf-8"?>
<!-- Generator: Adobe Illustrator 24.0.1, SVG Export Plug-In . SVG Version: 6.00 Build 0)  -->
<svg version="1.1" id="Layer_1" xmlns="http://www.w3.org/2000/svg" xmlns:xlink="http://www.w3.org/1999/xlink" x="0px" y="0px"
	 viewBox="0 0 100 60" style="enable-background:new 0 0 100 60;" xml:space="preserve">
<style type="text/css">
	.st0{fill:#DB192B;}
	.st1{fill:none;stroke:#DB192B;stroke-width:0.9283;stroke-miterlimit:10;}
</style>
<g>
	<g>
		<path class="st0" d="M37.2,32l7.8,7.8v7l-7.8,7.8h-7l-7.8-7.8v-7l7.8-7.8L37.2,32 M38.7,28.2H28.7L18.6,38.3v10.1l10.1,10.1h10.1
			l10.1-10.1V38.3L38.7,28.2L38.7,28.2z"/>
	</g>
	<g>
		<path class="st0" d="M69.8,32l7.8,7.8v7l-7.8,7.8h-7L55,46.8v-7l7.8-7.8L69.8,32 M71.3,28.2H61.3L51.2,38.3v10.1l10.1,10.1h10.1
			l10.1-10.1V38.3L71.3,28.2L71.3,28.2z"/>
	</g>
	<g>
		<path class="st0" d="M53.4,5.4l7.8,7.8v7L53.4,28h-7l-7.8-7.8v-7l7.8-7.8L53.4,5.4 M55,1.7H44.9L34.9,11.8v10.1l10.1,10.1H55
			L65,21.8V11.8L55,1.7L55,1.7z"/>
	</g>
	<line class="st1" x1="22.8" y1="51.3" x2="44.1" y2="51.3"/>
	<line class="st1" x1="57.2" y1="51.3" x2="77.5" y2="51.2"/>
	<line class="st1" x1="25.6" y1="34.6" x2="25.6" y2="51.3"/>
	<line class="st1" x1="42.3" y1="35.5" x2="42.3" y2="52.3"/>
	<line class="st1" x1="25.6" y1="34.6" x2="41.4" y2="34.6"/>
	<line class="st1" x1="58.1" y1="34.6" x2="73.9" y2="34.6"/>
	<line class="st1" x1="58.1" y1="51.3" x2="58.1" y2="34.6"/>
	<line class="st1" x1="74.8" y1="51.3" x2="74.8" y2="35.5"/>
	<line class="st1" x1="41.4" y1="9.6" x2="41.4" y2="24.5"/>
	<line class="st1" x1="59" y1="25.4" x2="42.3" y2="25.4"/>
	<line class="st1" x1="58.1" y1="8.7" x2="58.1" y2="26.2"/>
	<line class="st1" x1="41.4" y1="7.7" x2="58.1" y2="7.7"/>
</g>
</svg>
