<?xml version="1.0" encoding="utf-8"?>
<!-- Generator: Adobe Illustrator 24.0.1, SVG Export Plug-In . SVG Version: 6.00 Build 0)  -->
<svg version="1.1" id="Layer_1" xmlns="http://www.w3.org/2000/svg" xmlns:xlink="http://www.w3.org/1999/xlink" x="0px" y="0px"
	 viewBox="0 0 100 60" style="enable-background:new 0 0 100 60;" xml:space="preserve">
<style type="text/css">
	.st0{fill-rule:evenodd;clip-rule:evenodd;fill:#DB192B;}
</style>
<g>
	<polygon class="st0" points="51.6,55.9 45.4,56.2 31.6,32.1 37.7,31.7 	"/>
	<polygon class="st0" points="76.9,22.1 73.4,28.4 23.1,28.4 26.7,22.1 	"/>
	<polygon class="st0" points="70.5,10.3 66.9,16.5 28.7,16.5 32.2,10.3 	"/>
	<polygon class="st0" points="45.5,27.4 39.3,26.7 39.3,5.9 45.5,3.8 	"/>
	<polygon class="st0" points="66.4,35.3 62.9,41.6 30.7,41.6 33.7,35.3 	"/>
	<polygon class="st0" points="33.8,44.7 30.7,51 24.8,51 27.7,44.7 	"/>
	<polygon class="st0" points="59.3,26.6 54.1,25.9 54.1,12.4 59.3,10.3 	"/>
	<polygon class="st0" points="45.4,55.9 51.6,56.2 70.2,23.9 64.1,23.6 	"/>
	<polygon class="st0" points="71.2,44.7 68.1,51 62.1,51 65.1,44.7 	"/>
</g>
</svg>
