<?xml version="1.0" encoding="utf-8"?>
<!-- Generator: Adobe Illustrator 24.0.1, SVG Export Plug-In . SVG Version: 6.00 Build 0)  -->
<svg version="1.1" id="Layer_1" xmlns="http://www.w3.org/2000/svg" xmlns:xlink="http://www.w3.org/1999/xlink" x="0px" y="0px"
	 viewBox="0 0 100 60" style="enable-background:new 0 0 100 60;" xml:space="preserve">
<style type="text/css">
	.st0{fill:none;stroke:#DB192B;stroke-width:1.6937;stroke-miterlimit:10;}
	.st1{fill:#DB192B;}
	.st2{fill:none;stroke:#DB192B;stroke-width:0.8469;stroke-miterlimit:10;}
</style>
<g>
	<path class="st0" d="M25.5,16V8.7c0-1.5,1.2-2.8,2.8-2.8h7.4"/>
	<polyline class="st0" points="35.6,5.9 45.8,5 45.8,16 	"/>
	<path class="st0" d="M45.8,16v7.4c0,1.5-1.2,2.8-2.8,2.8h-7.4"/>
	<polyline class="st0" points="35.6,26.2 24.6,26.2 25.5,16 	"/>
	<path class="st1" d="M34,9.6v2.6c0,1.2-1,2.2-2.2,2.2h-2.6c-1.2,0-2.2-1-2.2-2.2V9.6c0-1.2,1-2.2,2.2-2.2l2.6,0
		C33.1,7.4,34,8.4,34,9.6z"/>
	<line class="st2" x1="36" y1="8.6" x2="36" y2="23.7"/>
	<line class="st2" x1="43.5" y1="16" x2="27.7" y2="16"/>
	<path class="st0" d="M25.5,16V8.7c0-1.5,1.2-2.8,2.8-2.8h7.4"/>
	<polyline class="st0" points="35.6,5.9 45.8,5 45.8,16 	"/>
	<path class="st0" d="M45.8,16v7.4c0,1.5-1.2,2.8-2.8,2.8h-7.4"/>
	<polyline class="st0" points="35.6,26.2 24.6,26.2 25.5,16 	"/>
	<path class="st1" d="M34,9.6v2.6c0,1.2-1,2.2-2.2,2.2h-2.6c-1.2,0-2.2-1-2.2-2.2V9.6c0-1.2,1-2.2,2.2-2.2l2.6,0
		C33.1,7.4,34,8.4,34,9.6z"/>
	<line class="st2" x1="36" y1="8.6" x2="36" y2="23.7"/>
	<line class="st2" x1="43.5" y1="16" x2="27.7" y2="16"/>
	<path class="st0" d="M25.5,16V8.7c0-1.5,1.2-2.8,2.8-2.8h7.4"/>
	<polyline class="st0" points="35.6,5.9 45.8,5 45.8,16 	"/>
	<path class="st0" d="M45.8,16v7.4c0,1.5-1.2,2.8-2.8,2.8h-7.4"/>
	<polyline class="st0" points="35.6,26.2 24.6,26.2 25.5,16 	"/>
	<path class="st1" d="M34,9.6v2.6c0,1.2-1,2.2-2.2,2.2h-2.6c-1.2,0-2.2-1-2.2-2.2V9.6c0-1.2,1-2.2,2.2-2.2l2.6,0
		C33.1,7.4,34,8.4,34,9.6z"/>
	<line class="st2" x1="36" y1="8.6" x2="36" y2="23.7"/>
	<line class="st2" x1="43.5" y1="16" x2="27.7" y2="16"/>
	<path class="st0" d="M25.5,16V8.7c0-1.5,1.2-2.8,2.8-2.8h7.4"/>
	<polyline class="st0" points="35.6,5.9 45.8,5 45.8,16 	"/>
	<path class="st0" d="M45.8,16v7.4c0,1.5-1.2,2.8-2.8,2.8h-7.4"/>
	<polyline class="st0" points="35.6,26.2 24.6,26.2 25.5,16 	"/>
	<path class="st1" d="M34,9.6v2.6c0,1.2-1,2.2-2.2,2.2h-2.6c-1.2,0-2.2-1-2.2-2.2V9.6c0-1.2,1-2.2,2.2-2.2l2.6,0
		C33.1,7.4,34,8.4,34,9.6z"/>
	<line class="st2" x1="36" y1="8.6" x2="36" y2="23.7"/>
	<line class="st2" x1="43.5" y1="16" x2="27.7" y2="16"/>
	<path class="st0" d="M64.4,5.9h7.4c1.5,0,2.8,1.2,2.8,2.8V16"/>
	<polyline class="st0" points="74.5,16 75.4,26.2 64.4,26.2 	"/>
	<path class="st0" d="M64.4,26.2H57c-1.5,0-2.8-1.2-2.8-2.8V16"/>
	<polyline class="st0" points="54.2,16 54.2,5 64.4,5.9 	"/>
	<path class="st1" d="M70.8,14.5h-2.6c-1.2,0-2.2-1-2.2-2.2V9.6c0-1.2,1-2.2,2.2-2.2h2.6c1.2,0,2.2,1,2.2,2.2v2.6
		C73,13.5,72,14.5,70.8,14.5z"/>
	<line class="st2" x1="71.9" y1="16.4" x2="56.7" y2="16.4"/>
	<line class="st2" x1="64.4" y1="24" x2="64.4" y2="8.2"/>
	<path class="st0" d="M64.4,5.9h7.4c1.5,0,2.8,1.2,2.8,2.8V16"/>
	<polyline class="st0" points="74.5,16 75.4,26.2 64.4,26.2 	"/>
	<path class="st0" d="M64.4,26.2H57c-1.5,0-2.8-1.2-2.8-2.8V16"/>
	<polyline class="st0" points="54.2,16 54.2,5 64.4,5.9 	"/>
	<path class="st1" d="M70.8,14.5h-2.6c-1.2,0-2.2-1-2.2-2.2V9.6c0-1.2,1-2.2,2.2-2.2h2.6c1.2,0,2.2,1,2.2,2.2v2.6
		C73,13.5,72,14.5,70.8,14.5z"/>
	<line class="st2" x1="71.9" y1="16.4" x2="56.7" y2="16.4"/>
	<line class="st2" x1="64.4" y1="24" x2="64.4" y2="8.2"/>
	<path class="st0" d="M64.4,5.9h7.4c1.5,0,2.8,1.2,2.8,2.8V16"/>
	<polyline class="st0" points="74.5,16 75.4,26.2 64.4,26.2 	"/>
	<path class="st0" d="M64.4,26.2H57c-1.5,0-2.8-1.2-2.8-2.8V16"/>
	<polyline class="st0" points="54.2,16 54.2,5 64.4,5.9 	"/>
	<path class="st1" d="M70.8,14.5h-2.6c-1.2,0-2.2-1-2.2-2.2V9.6c0-1.2,1-2.2,2.2-2.2h2.6c1.2,0,2.2,1,2.2,2.2v2.6
		C73,13.5,72,14.5,70.8,14.5z"/>
	<line class="st2" x1="71.9" y1="16.4" x2="56.7" y2="16.4"/>
	<line class="st2" x1="64.4" y1="24" x2="64.4" y2="8.2"/>
	<path class="st0" d="M64.4,5.9h7.4c1.5,0,2.8,1.2,2.8,2.8V16"/>
	<polyline class="st0" points="74.5,16 75.4,26.2 64.4,26.2 	"/>
	<path class="st0" d="M64.4,26.2H57c-1.5,0-2.8-1.2-2.8-2.8V16"/>
	<polyline class="st0" points="54.2,16 54.2,5 64.4,5.9 	"/>
	<path class="st1" d="M70.8,14.5h-2.6c-1.2,0-2.2-1-2.2-2.2V9.6c0-1.2,1-2.2,2.2-2.2h2.6c1.2,0,2.2,1,2.2,2.2v2.6
		C73,13.5,72,14.5,70.8,14.5z"/>
	<line class="st2" x1="71.9" y1="16.4" x2="56.7" y2="16.4"/>
	<line class="st2" x1="64.4" y1="24" x2="64.4" y2="8.2"/>
	<path class="st0" d="M74.5,44v7.4c0,1.5-1.2,2.8-2.8,2.8h-7.4"/>
	<polyline class="st0" points="64.4,54.1 54.2,55 54.2,44 	"/>
	<path class="st0" d="M54.2,44v-7.4c0-1.5,1.2-2.8,2.8-2.8h7.4"/>
	<polyline class="st0" points="64.4,33.8 75.4,33.8 74.5,44 	"/>
	<path class="st1" d="M66,50.4v-2.6c0-1.2,1-2.2,2.2-2.2h2.6c1.2,0,2.2,1,2.2,2.2v2.6c0,1.2-1,2.2-2.2,2.2h-2.6
		C66.9,52.6,66,51.6,66,50.4z"/>
	<line class="st2" x1="64" y1="51.4" x2="64" y2="36.3"/>
	<line class="st2" x1="56.5" y1="44" x2="72.3" y2="44"/>
	<path class="st0" d="M74.5,44v7.4c0,1.5-1.2,2.8-2.8,2.8h-7.4"/>
	<polyline class="st0" points="64.4,54.1 54.2,55 54.2,44 	"/>
	<path class="st0" d="M54.2,44v-7.4c0-1.5,1.2-2.8,2.8-2.8h7.4"/>
	<polyline class="st0" points="64.4,33.8 75.4,33.8 74.5,44 	"/>
	<path class="st1" d="M66,50.4v-2.6c0-1.2,1-2.2,2.2-2.2h2.6c1.2,0,2.2,1,2.2,2.2v2.6c0,1.2-1,2.2-2.2,2.2h-2.6
		C66.9,52.6,66,51.6,66,50.4z"/>
	<line class="st2" x1="64" y1="51.4" x2="64" y2="36.3"/>
	<line class="st2" x1="56.5" y1="44" x2="72.3" y2="44"/>
	<path class="st0" d="M74.5,44v7.4c0,1.5-1.2,2.8-2.8,2.8h-7.4"/>
	<polyline class="st0" points="64.4,54.1 54.2,55 54.2,44 	"/>
	<path class="st0" d="M54.2,44v-7.4c0-1.5,1.2-2.8,2.8-2.8h7.4"/>
	<polyline class="st0" points="64.4,33.8 75.4,33.8 74.5,44 	"/>
	<path class="st1" d="M66,50.4v-2.6c0-1.2,1-2.2,2.2-2.2h2.6c1.2,0,2.2,1,2.2,2.2v2.6c0,1.2-1,2.2-2.2,2.2h-2.6
		C66.9,52.6,66,51.6,66,50.4z"/>
	<line class="st2" x1="64" y1="51.4" x2="64" y2="36.3"/>
	<line class="st2" x1="56.5" y1="44" x2="72.3" y2="44"/>
	<path class="st0" d="M74.5,44v7.4c0,1.5-1.2,2.8-2.8,2.8h-7.4"/>
	<polyline class="st0" points="64.4,54.1 54.2,55 54.2,44 	"/>
	<path class="st0" d="M54.2,44v-7.4c0-1.5,1.2-2.8,2.8-2.8h7.4"/>
	<polyline class="st0" points="64.4,33.8 75.4,33.8 74.5,44 	"/>
	<path class="st1" d="M66,50.4v-2.6c0-1.2,1-2.2,2.2-2.2h2.6c1.2,0,2.2,1,2.2,2.2v2.6c0,1.2-1,2.2-2.2,2.2h-2.6
		C66.9,52.6,66,51.6,66,50.4z"/>
	<line class="st2" x1="64" y1="51.4" x2="64" y2="36.3"/>
	<line class="st2" x1="56.5" y1="44" x2="72.3" y2="44"/>
	<path class="st0" d="M35.6,54.1h-7.4c-1.5,0-2.8-1.2-2.8-2.8V44"/>
	<polyline class="st0" points="25.5,44 24.6,33.8 35.6,33.8 	"/>
	<path class="st0" d="M35.6,33.8H43c1.5,0,2.8,1.2,2.8,2.8V44"/>
	<polyline class="st0" points="45.8,44 45.8,55 35.6,54.1 	"/>
	<path class="st1" d="M29.2,45.5h2.6c1.2,0,2.2,1,2.2,2.2v2.6c0,1.2-1,2.2-2.2,2.2h-2.6c-1.2,0-2.2-1-2.2-2.2v-2.6
		C27,46.5,28,45.5,29.2,45.5z"/>
	<line class="st2" x1="28.1" y1="43.6" x2="43.3" y2="43.6"/>
	<line class="st2" x1="35.6" y1="36" x2="35.6" y2="51.8"/>
	<path class="st0" d="M35.6,54.1h-7.4c-1.5,0-2.8-1.2-2.8-2.8V44"/>
	<polyline class="st0" points="25.5,44 24.6,33.8 35.6,33.8 	"/>
	<path class="st0" d="M35.6,33.8H43c1.5,0,2.8,1.2,2.8,2.8V44"/>
	<polyline class="st0" points="45.8,44 45.8,55 35.6,54.1 	"/>
	<path class="st1" d="M29.2,45.5h2.6c1.2,0,2.2,1,2.2,2.2v2.6c0,1.2-1,2.2-2.2,2.2h-2.6c-1.2,0-2.2-1-2.2-2.2v-2.6
		C27,46.5,28,45.5,29.2,45.5z"/>
	<line class="st2" x1="28.1" y1="43.6" x2="43.3" y2="43.6"/>
	<line class="st2" x1="35.6" y1="36" x2="35.6" y2="51.8"/>
	<path class="st0" d="M35.6,54.1h-7.4c-1.5,0-2.8-1.2-2.8-2.8V44"/>
	<polyline class="st0" points="25.5,44 24.6,33.8 35.6,33.8 	"/>
	<path class="st0" d="M35.6,33.8H43c1.5,0,2.8,1.2,2.8,2.8V44"/>
	<polyline class="st0" points="45.8,44 45.8,55 35.6,54.1 	"/>
	<path class="st1" d="M29.2,45.5h2.6c1.2,0,2.2,1,2.2,2.2v2.6c0,1.2-1,2.2-2.2,2.2h-2.6c-1.2,0-2.2-1-2.2-2.2v-2.6
		C27,46.5,28,45.5,29.2,45.5z"/>
	<line class="st2" x1="28.1" y1="43.6" x2="43.3" y2="43.6"/>
	<line class="st2" x1="35.6" y1="36" x2="35.6" y2="51.8"/>
	<path class="st0" d="M35.6,54.1h-7.4c-1.5,0-2.8-1.2-2.8-2.8V44"/>
	<polyline class="st0" points="25.5,44 24.6,33.8 35.6,33.8 	"/>
	<path class="st0" d="M35.6,33.8H43c1.5,0,2.8,1.2,2.8,2.8V44"/>
	<polyline class="st0" points="45.8,44 45.8,55 35.6,54.1 	"/>
	<path class="st1" d="M29.2,45.5h2.6c1.2,0,2.2,1,2.2,2.2v2.6c0,1.2-1,2.2-2.2,2.2h-2.6c-1.2,0-2.2-1-2.2-2.2v-2.6
		C27,46.5,28,45.5,29.2,45.5z"/>
	<line class="st2" x1="28.1" y1="43.6" x2="43.3" y2="43.6"/>
	<line class="st2" x1="35.6" y1="36" x2="35.6" y2="51.8"/>
</g>
</svg>
