<?xml version="1.0" encoding="utf-8"?>
<!-- Generator: Adobe Illustrator 24.0.1, SVG Export Plug-In . SVG Version: 6.00 Build 0)  -->
<svg version="1.1" id="Layer_1" xmlns="http://www.w3.org/2000/svg" xmlns:xlink="http://www.w3.org/1999/xlink" x="0px" y="0px"
	 viewBox="0 0 100 60" style="enable-background:new 0 0 100 60;" xml:space="preserve">
<style type="text/css">
	.st0{fill:#DB192B;}
	.st1{fill:none;stroke:#DB192B;stroke-width:0.9054;stroke-miterlimit:10;}
</style>
<g>
	<g>
		<path class="st0" d="M26.4,14.7v30.6h-6.6V14.7H26.4 M27.4,12h-8.4c-1,0-1.8,0.8-1.8,1.8v32.4c0,1,0.8,1.8,1.8,1.8h8.4
			c1,0,1.8-0.8,1.8-1.8V13.8C29.2,12.8,28.4,12,27.4,12L27.4,12z"/>
	</g>
	<g>
		<path class="st0" d="M27.2,10h-8c-1.1,0-2-0.9-2-2V6c0-1.1,0.9-2,2-2h8c1.1,0,2,0.9,2,2v2C29.2,9.1,28.3,10,27.2,10z"/>
	</g>
	<g>
		<path class="st0" d="M45.2,4.9c0.6,0,1.1,0.5,1.1,1.1v2c0,0.6-0.5,1.1-1.1,1.1h-8c-0.6,0-1.1-0.5-1.1-1.1V6c0-0.6,0.5-1.1,1.1-1.1
			H45.2 M45.2,4h-8c-1.1,0-2,0.9-2,2v2c0,1.1,0.9,2,2,2h8c1.1,0,2-0.9,2-2V6C47.2,4.9,46.3,4,45.2,4L45.2,4z"/>
	</g>
	<g>
		<path class="st0" d="M63.2,10h-8c-1.1,0-2-0.9-2-2V6c0-1.1,0.9-2,2-2h8c1.1,0,2,0.9,2,2v2C65.2,9.1,64.3,10,63.2,10z"/>
	</g>
	<g>
		<path class="st0" d="M44.4,14.7v30.6h-6.6V14.7H44.4 M45.4,12h-8.4c-1,0-1.8,0.8-1.8,1.8v32.4c0,1,0.8,1.8,1.8,1.8h8.4
			c1,0,1.8-0.8,1.8-1.8V13.8C47.2,12.8,46.4,12,45.4,12L45.4,12z"/>
	</g>
	<g>
		<path class="st0" d="M62.4,14.7v30.6h-6.6V14.7H62.4 M63.4,12h-8.4c-1,0-1.8,0.8-1.8,1.8v32.4c0,1,0.8,1.8,1.8,1.8h8.4
			c1,0,1.8-0.8,1.8-1.8V13.8C65.2,12.8,64.4,12,63.4,12L63.4,12z"/>
	</g>
	<g>
		<path class="st0" d="M27.2,50.9c0.6,0,1.1,0.5,1.1,1.1v2c0,0.6-0.5,1.1-1.1,1.1h-8c-0.6,0-1.1-0.5-1.1-1.1v-2
			c0-0.6,0.5-1.1,1.1-1.1H27.2 M27.2,50h-8c-1.1,0-2,0.9-2,2v2c0,1.1,0.9,2,2,2h8c1.1,0,2-0.9,2-2v-2C29.2,50.9,28.3,50,27.2,50
			L27.2,50z"/>
	</g>
	<g>
		<path class="st0" d="M45.2,56h-8c-1.1,0-2-0.9-2-2v-2c0-1.1,0.9-2,2-2h8c1.1,0,2,0.9,2,2v2C47.2,55.1,46.3,56,45.2,56z"/>
	</g>
	<g>
		<path class="st0" d="M63.2,50.9c0.6,0,1.1,0.5,1.1,1.1v2c0,0.6-0.5,1.1-1.1,1.1h-8c-0.6,0-1.1-0.5-1.1-1.1v-2
			c0-0.6,0.5-1.1,1.1-1.1H63.2 M63.2,50h-8c-1.1,0-2,0.9-2,2v2c0,1.1,0.9,2,2,2h8c1.1,0,2-0.9,2-2v-2C65.2,50.9,64.3,50,63.2,50
			L63.2,50z"/>
	</g>
	<g>
		<path class="st0" d="M80.9,4.9c0.6,0,1.1,0.5,1.1,1.1v2c0,0.6-0.5,1.1-1.1,1.1h-8c-0.6,0-1.1-0.5-1.1-1.1V6c0-0.6,0.5-1.1,1.1-1.1
			H80.9 M80.9,4h-8c-1.1,0-2,0.9-2,2v2c0,1.1,0.9,2,2,2h8c1.1,0,2-0.9,2-2V6C82.8,4.9,81.9,4,80.9,4L80.9,4z"/>
	</g>
	<g>
		<path class="st0" d="M80.1,14.7v30.6h-6.6V14.7H80.1 M81.1,12h-8.4c-1,0-1.8,0.8-1.8,1.8v32.4c0,1,0.8,1.8,1.8,1.8h8.4
			c1,0,1.8-0.8,1.8-1.8V13.8C82.8,12.8,82,12,81.1,12L81.1,12z"/>
	</g>
	<g>
		<path class="st0" d="M80.9,56h-8c-1.1,0-2-0.9-2-2v-2c0-1.1,0.9-2,2-2h8c1.1,0,2,0.9,2,2v2C82.8,55.1,81.9,56,80.9,56z"/>
	</g>
	<line class="st1" x1="82.4" y1="17.6" x2="72.4" y2="17.6"/>
	<line class="st1" x1="82.4" y1="42" x2="72.4" y2="42"/>
	<line class="st1" x1="64.2" y1="17.6" x2="54.3" y2="17.6"/>
	<line class="st1" x1="64.2" y1="42" x2="54.3" y2="42"/>
	<line class="st1" x1="46.1" y1="17.6" x2="36.2" y2="17.6"/>
	<line class="st1" x1="46.1" y1="42" x2="36.2" y2="42"/>
	<line class="st1" x1="28" y1="17.6" x2="18.1" y2="17.6"/>
	<line class="st1" x1="28" y1="42" x2="18.1" y2="42"/>
</g>
</svg>
