<?xml version="1.0" encoding="utf-8"?>
<!-- Generator: Adobe Illustrator 24.0.1, SVG Export Plug-In . SVG Version: 6.00 Build 0)  -->
<svg version="1.1" id="Layer_1" xmlns="http://www.w3.org/2000/svg" xmlns:xlink="http://www.w3.org/1999/xlink" x="0px" y="0px"
	 viewBox="0 0 100 60" style="enable-background:new 0 0 100 60;" xml:space="preserve">
<style type="text/css">
	.st0{fill:none;stroke:#DB192B;stroke-width:2.674;stroke-miterlimit:10;}
	.st1{fill:#DB192B;}
	.st2{fill:none;stroke:#DB192B;stroke-width:0.8913;stroke-miterlimit:10;}
</style>
<g>
	<path class="st0" d="M8.7,9.9h40.7c2.4,0,4,2.7,2.7,4.8L31.8,48.6c-1.2,2-4.2,2-5.4,0L6,14.7C4.8,12.6,6.3,9.9,8.7,9.9z"/>
	<polygon class="st1" points="37.3,27.8 18.6,27.8 20.3,24.2 39.1,24.2 	"/>
	<polygon class="st1" points="27,34.5 27,15.8 30.6,17.6 30.6,36.3 	"/>
	<path class="st2" d="M12.6,13.2h32.8c2,0,3.2,2.2,2.2,3.9L31.2,44.4c-1,1.6-3.4,1.6-4.4,0L10.4,17C9.4,15.3,10.6,13.2,12.6,13.2z"
		/>
	<path class="st0" d="M91.3,50.1H50.6c-2.4,0-4-2.7-2.7-4.8l20.3-33.9c1.2-2,4.2-2,5.4,0L94,45.3C95.2,47.4,93.7,50.1,91.3,50.1z"/>
	<polygon class="st1" points="62.7,36.6 81.4,36.6 79.7,40.2 60.9,40.2 	"/>
	<path class="st2" d="M87.4,46.8H54.6c-2,0-3.2-2.2-2.2-3.9l16.4-27.4c1-1.6,3.4-1.6,4.4,0L89.6,43C90.6,44.7,89.4,46.8,87.4,46.8z"
		/>
</g>
</svg>
