<?xml version="1.0" encoding="utf-8"?>
<!-- Generator: Adobe Illustrator 24.0.1, SVG Export Plug-In . SVG Version: 6.00 Build 0)  -->
<svg version="1.1" id="Layer_1" xmlns="http://www.w3.org/2000/svg" xmlns:xlink="http://www.w3.org/1999/xlink" x="0px" y="0px"
	 viewBox="0 0 100 60" style="enable-background:new 0 0 100 60;" xml:space="preserve">
<style type="text/css">
	.st0{fill:#DB192B;}
	.st1{fill:none;stroke:#DB192B;stroke-miterlimit:10;}
</style>
<g>
	<g>
		<path class="st0" d="M29.7,4C30.4,4,31,4.6,31,5.3v47.3c0,0.7-0.6,1.3-1.3,1.3H18.3c-0.7,0-1.3-0.6-1.3-1.3V5.3
			C17,4.6,17.6,4,18.3,4H29.7 M29.7,2H18.3C16.5,2,15,3.5,15,5.3v47.3c0,1.8,1.5,3.3,3.3,3.3h11.3c1.8,0,3.3-1.5,3.3-3.3V5.3
			C33,3.5,31.5,2,29.7,2L29.7,2z"/>
	</g>
	<g>
		<path class="st0" d="M29.3,23H18.7c-2,0-3.7-1.6-3.7-3.7v-2.7c0-2,1.6-3.7,3.7-3.7h10.7c2,0,3.7,1.6,3.7,3.7v2.7
			C33,21.4,31.4,23,29.3,23z"/>
	</g>
	<line class="st1" x1="16" y1="13" x2="33" y2="13"/>
	<line class="st1" x1="16" y1="23" x2="33" y2="23"/>
	<line class="st1" x1="16" y1="34" x2="33" y2="34"/>
	<line class="st1" x1="16" y1="44" x2="33" y2="44"/>
	<g>
		<path class="st0" d="M56.7,4C57.4,4,58,4.6,58,5.3v47.3c0,0.7-0.6,1.3-1.3,1.3H45.3c-0.7,0-1.3-0.6-1.3-1.3V5.3
			C44,4.6,44.6,4,45.3,4H56.7 M56.7,2H45.3C43.5,2,42,3.5,42,5.3v47.3c0,1.8,1.5,3.3,3.3,3.3h11.3c1.8,0,3.3-1.5,3.3-3.3V5.3
			C60,3.5,58.5,2,56.7,2L56.7,2z"/>
	</g>
	<g>
		<path class="st0" d="M56.3,44H45.7c-2,0-3.7-1.6-3.7-3.7v-2.7c0-2,1.6-3.7,3.7-3.7h10.7c2,0,3.7,1.6,3.7,3.7v2.7
			C60,42.4,58.4,44,56.3,44z"/>
	</g>
	<line class="st1" x1="43" y1="13" x2="60" y2="13"/>
	<line class="st1" x1="43" y1="23" x2="60" y2="23"/>
	<line class="st1" x1="43" y1="34" x2="60" y2="34"/>
	<line class="st1" x1="43" y1="44" x2="60" y2="44"/>
	<g>
		<path class="st0" d="M83.7,4C84.4,4,85,4.6,85,5.3v47.3c0,0.7-0.6,1.3-1.3,1.3H72.3c-0.7,0-1.3-0.6-1.3-1.3V5.3
			C71,4.6,71.6,4,72.3,4H83.7 M83.7,2H72.3C70.5,2,69,3.5,69,5.3v47.3c0,1.8,1.5,3.3,3.3,3.3h11.3c1.8,0,3.3-1.5,3.3-3.3V5.3
			C87,3.5,85.5,2,83.7,2L83.7,2z"/>
	</g>
	<g>
		<path class="st0" d="M83.3,33H72.7c-2,0-3.7-1.6-3.7-3.7v-2.7c0-2,1.6-3.7,3.7-3.7h10.7c2,0,3.7,1.6,3.7,3.7v2.7
			C87,31.4,85.4,33,83.3,33z"/>
	</g>
	<line class="st1" x1="70" y1="13" x2="87" y2="13"/>
	<line class="st1" x1="70" y1="23" x2="87" y2="23"/>
	<line class="st1" x1="70" y1="33" x2="87" y2="33"/>
	<line class="st1" x1="70" y1="44" x2="87" y2="44"/>
	<path class="st1" d="M31,54.7c0,1.8-1.5,3.3-3.3,3.3H16.3c-1.8,0-3.3-1.5-3.3-3.3V7.3C13,5.5,14.5,4,16.3,4"/>
	<path class="st1" d="M58,54.7c0,1.8-1.5,3.3-3.3,3.3H43.3c-1.8,0-3.3-1.5-3.3-3.3V7.3C40,5.5,41.5,4,43.3,4"/>
	<path class="st1" d="M85,54.7c0,1.8-1.5,3.3-3.3,3.3H70.3c-1.8,0-3.3-1.5-3.3-3.3V7.3C67,5.5,68.5,4,70.3,4"/>
</g>
</svg>
