<?xml version="1.0" encoding="utf-8"?>
<!-- Generator: Adobe Illustrator 24.0.1, SVG Export Plug-In . SVG Version: 6.00 Build 0)  -->
<svg version="1.1" id="Layer_1" xmlns="http://www.w3.org/2000/svg" xmlns:xlink="http://www.w3.org/1999/xlink" x="0px" y="0px"
	 viewBox="0 0 100 60" style="enable-background:new 0 0 100 60;" xml:space="preserve">
<style type="text/css">
	.st0{fill:none;stroke:#DB192B;stroke-width:3.5969;stroke-linecap:square;stroke-miterlimit:10;}
	.st1{fill:none;stroke:#DB192B;stroke-width:2.6977;stroke-miterlimit:10;}
	.st2{fill:none;stroke:#DB192B;stroke-width:3.5969;stroke-miterlimit:10;}
	.st3{fill:none;stroke:#DB192B;stroke-width:0.8992;stroke-miterlimit:10;}
</style>
<g>
	<polyline class="st0" points="59.6,21.4 50.3,30.6 41.1,21.4 	"/>
	<polyline class="st0" points="41.1,30.6 50.3,39.8 59.6,30.6 	"/>
	<path class="st1" d="M30,43.8V15.9c0-3.4,2.8-6.2,6.2-6.2H64c3.4,0,6.2,2.8,6.2,6.2v27.9c0,3.4-2.8,6.2-6.2,6.2H36.2
		C32.8,50,30,47.2,30,43.8z"/>
	<line class="st2" x1="50.3" y1="49" x2="50.3" y2="58.2"/>
	<line class="st2" x1="50.3" y1="1.8" x2="50.3" y2="11"/>
	<path class="st3" d="M33.8,43.4V16.3c0-1.5,1.2-2.7,2.7-2.7h27.2c1.5,0,2.7,1.2,2.7,2.7v27.2c0,1.5-1.2,2.7-2.7,2.7H36.5
		C35,46.1,33.8,44.9,33.8,43.4z"/>
	<polyline class="st3" points="20.6,27.6 30.3,27.6 30.3,31.4 20.6,31.4 	"/>
	<polyline class="st3" points="79.4,31.4 69.7,31.4 69.7,27.6 79.4,27.6 	"/>
</g>
</svg>
