<?xml version="1.0" encoding="utf-8"?>
<!-- Generator: Adobe Illustrator 24.0.1, SVG Export Plug-In . SVG Version: 6.00 Build 0)  -->
<svg version="1.1" id="Layer_1" xmlns="http://www.w3.org/2000/svg" xmlns:xlink="http://www.w3.org/1999/xlink" x="0px" y="0px"
	 viewBox="0 0 100 60" style="enable-background:new 0 0 100 60;" xml:space="preserve">
<style type="text/css">
	.st0{fill:none;stroke:#DB192B;stroke-width:0.7899;stroke-miterlimit:10;}
	.st1{fill:none;stroke:#DB192B;stroke-width:2.3696;stroke-miterlimit:10;}
	.st2{fill:#DB192B;}
</style>
<g>
	<line class="st0" x1="23.2" y1="34" x2="23.2" y2="25.5"/>
	<line class="st0" x1="28" y1="25.5" x2="28" y2="34"/>
	<line class="st0" x1="32.8" y1="34" x2="32.8" y2="25.5"/>
	<line class="st0" x1="37.6" y1="25.5" x2="37.6" y2="34"/>
	<line class="st0" x1="41.8" y1="6.6" x2="50.6" y2="6.6"/>
	<line class="st0" x1="50.6" y1="11.4" x2="42.1" y2="11.4"/>
	<line class="st0" x1="42.1" y1="16.2" x2="50.6" y2="16.2"/>
	<line class="st0" x1="50.6" y1="21" x2="42.1" y2="21"/>
	<path class="st1" d="M42.3,6.6c-10.6,0-19.2,8.6-19.2,19.2"/>
	<path class="st1" d="M42.3,11.4c-7.9,0-14.4,6.4-14.4,14.4"/>
	<path class="st1" d="M42.3,16.1c-5.3,0-9.6,4.3-9.6,9.6"/>
	<path class="st1" d="M42.3,20.9c-2.6,0-4.8,2.1-4.8,4.8"/>
	<line class="st0" x1="23.2" y1="26.2" x2="23.2" y2="34.7"/>
	<line class="st0" x1="28" y1="34.7" x2="28" y2="26.2"/>
	<line class="st0" x1="32.8" y1="26.2" x2="32.8" y2="34.7"/>
	<line class="st0" x1="37.6" y1="34.7" x2="37.6" y2="26.2"/>
	<line class="st0" x1="41.8" y1="53.6" x2="50.6" y2="53.6"/>
	<line class="st0" x1="50.6" y1="48.8" x2="42.1" y2="48.8"/>
	<line class="st0" x1="42.1" y1="44.1" x2="50.6" y2="44.1"/>
	<line class="st0" x1="50.6" y1="39.3" x2="42.1" y2="39.3"/>
	<path class="st1" d="M42.3,53.7c-10.6,0-19.2-8.6-19.2-19.2"/>
	<path class="st1" d="M42.3,48.9c-7.9,0-14.4-6.4-14.4-14.4"/>
	<path class="st1" d="M42.3,44.1c-5.3,0-9.6-4.3-9.6-9.6"/>
	<path class="st1" d="M42.3,39.3c-2.6,0-4.8-2.1-4.8-4.8"/>
	<g>
		<path class="st2" d="M69.8,2.1h-8.2c-4.8,0-8.8,3.9-8.8,8.8v6.2c0,4.8,3.9,8.8,8.8,8.8h8.2c4.8,0,8.8-3.9,8.8-8.8v-6.2
			C78.6,6.1,74.7,2.1,69.8,2.1z M76.8,19.3h-1.4v2.6v0.8h-0.8h-3.1v1H60.1v-1h-3.3H56v-0.8v-2.6h-1.2V8.7H56V6.1V5.3h0.8h3.3v-1
			h11.4v1h3.1h0.8v0.8v2.6h1.4V19.3z"/>
		<polygon class="st2" points="56.4,5.7 60.1,5.7 60.1,5.3 56.8,5.3 56,5.3 56,6.1 56,8.7 56.4,8.7 		"/>
		<polygon class="st2" points="56.4,22.3 56.4,19.3 56,19.3 56,21.9 56,22.7 56.8,22.7 60.1,22.7 60.1,22.3 		"/>
		<polygon class="st2" points="75.1,5.7 75.1,8.7 75.4,8.7 75.4,6.1 75.4,5.3 74.7,5.3 71.5,5.3 71.5,5.7 		"/>
		<polygon class="st2" points="75.1,22.3 71.5,22.3 71.5,22.7 74.7,22.7 75.4,22.7 75.4,21.9 75.4,19.3 75.1,19.3 		"/>
		<rect x="75.1" y="8.7" class="st2" width="0.4" height="10.6"/>
		<rect x="56" y="8.7" class="st2" width="0.4" height="10.6"/>
		<rect x="60.1" y="22.3" class="st2" width="11.4" height="0.4"/>
		<rect x="60.1" y="5.3" class="st2" width="11.4" height="0.4"/>
		<polygon class="st2" points="56.8,21.9 56.8,19.3 56.4,19.3 56.4,22.3 60.1,22.3 60.1,21.9 		"/>
		<polygon class="st2" points="74.7,21.9 71.5,21.9 71.5,22.3 75.1,22.3 75.1,19.3 74.7,19.3 		"/>
		<polygon class="st2" points="71.5,5.7 71.5,6.1 74.7,6.1 74.7,8.7 75.1,8.7 75.1,5.7 		"/>
		<polygon class="st2" points="56.8,6.1 60.1,6.1 60.1,5.7 56.4,5.7 56.4,8.7 56.8,8.7 		"/>
		<polygon class="st2" points="56.8,17.1 56.8,10.9 56.8,8.7 56.4,8.7 56.4,19.3 56.8,19.3 		"/>
		<polygon class="st2" points="74.7,10.9 74.7,17.1 74.7,19.3 75.1,19.3 75.1,8.7 74.7,8.7 		"/>
		<polygon class="st2" points="69.8,21.9 61.7,21.9 60.1,21.9 60.1,22.3 71.5,22.3 71.5,21.9 		"/>
		<polygon class="st2" points="61.7,6.1 69.8,6.1 71.5,6.1 71.5,5.7 60.1,5.7 60.1,6.1 		"/>
		<g>
			<path class="st2" d="M69.8,34.1h-8.2c-4.8,0-8.8,3.9-8.8,8.8v6.2c0,4.8,3.9,8.8,8.8,8.8h8.2c4.8,0,8.8-3.9,8.8-8.8v-6.2
				C78.6,38.1,74.7,34.1,69.8,34.1z M76.8,51.3h-1.4v2.6v0.8h-0.8h-3.1v1H60.1v-1h-3.3H56v-0.8v-2.6h-1.2V40.7H56v-2.6v-0.8h0.8h3.3
				v-1h11.4v1h3.1h0.8v0.8v2.6h1.4V51.3z"/>
			<polygon class="st2" points="75.1,54.3 71.5,54.3 71.5,54.7 74.7,54.7 75.4,54.7 75.4,53.9 75.4,51.3 75.1,51.3 			"/>
			<polygon class="st2" points="75.1,37.7 75.1,40.7 75.4,40.7 75.4,38.1 75.4,37.3 74.7,37.3 71.5,37.3 71.5,37.7 			"/>
			<polygon class="st2" points="56.4,37.7 60.1,37.7 60.1,37.3 56.8,37.3 56,37.3 56,38.1 56,40.7 56.4,40.7 			"/>
			<polygon class="st2" points="56.4,54.3 56.4,51.3 56,51.3 56,53.9 56,54.7 56.8,54.7 60.1,54.7 60.1,54.3 			"/>
			<rect x="56" y="40.7" class="st2" width="0.4" height="10.6"/>
			<rect x="75.1" y="40.7" class="st2" width="0.4" height="10.6"/>
			<rect x="60.1" y="37.3" class="st2" width="11.4" height="0.4"/>
			<rect x="60.1" y="54.3" class="st2" width="11.4" height="0.4"/>
			<polygon class="st2" points="56.8,38.1 60.1,38.1 60.1,37.7 56.4,37.7 56.4,40.7 56.8,40.7 			"/>
			<polygon class="st2" points="71.5,37.7 71.5,38.1 74.7,38.1 74.7,40.7 75.1,40.7 75.1,37.7 			"/>
			<polygon class="st2" points="74.7,53.9 71.5,53.9 71.5,54.3 75.1,54.3 75.1,51.3 74.7,51.3 			"/>
			<polygon class="st2" points="56.8,53.9 56.8,51.3 56.4,51.3 56.4,54.3 60.1,54.3 60.1,53.9 			"/>
			<polygon class="st2" points="56.8,49.1 56.8,42.9 56.8,40.7 56.4,40.7 56.4,51.3 56.8,51.3 			"/>
			<polygon class="st2" points="74.7,42.9 74.7,49.1 74.7,51.3 75.1,51.3 75.1,40.7 74.7,40.7 			"/>
			<polygon class="st2" points="69.8,53.9 61.7,53.9 60.1,53.9 60.1,54.3 71.5,54.3 71.5,53.9 			"/>
			<polygon class="st2" points="61.7,38.1 69.8,38.1 71.5,38.1 71.5,37.7 60.1,37.7 60.1,38.1 			"/>
		</g>
	</g>
</g>
</svg>
