<?xml version="1.0" encoding="utf-8"?>
<!-- Generator: Adobe Illustrator 24.0.1, SVG Export Plug-In . SVG Version: 6.00 Build 0)  -->
<svg version="1.1" id="Layer_1" xmlns="http://www.w3.org/2000/svg" xmlns:xlink="http://www.w3.org/1999/xlink" x="0px" y="0px"
	 viewBox="0 0 100 60" style="enable-background:new 0 0 100 60;" xml:space="preserve">
<style type="text/css">
	.st0{fill:#DB192B;}
</style>
<g>
	<g>
		<path class="st0" d="M59.6,14.1c3.4,0,6.2,2.8,6.2,6.2v19.6c0,3.4-2.8,6.2-6.2,6.2H40c-3.4,0-6.2-2.8-6.2-6.2V20.3
			c0-3.4,2.8-6.2,6.2-6.2H59.6 M59.6,10.8H40c-5.3,0-9.5,4.3-9.5,9.5v19.6c0,5.3,4.3,9.5,9.5,9.5h19.6c5.3,0,9.5-4.3,9.5-9.5V20.3
			C69.1,15.1,64.9,10.8,59.6,10.8L59.6,10.8z"/>
	</g>
	<g>
		<polygon class="st0" points="57.3,36.7 42.8,36.7 42.8,39 57.3,39 57.3,36.7 		"/>
	</g>
	<g>
		<path class="st0" d="M43,30.2h-2.3v6.6c0,1.2,1,2.1,2.1,2.1H43V30.2L43,30.2z"/>
	</g>
	<g>
		<path class="st0" d="M59.3,35.4H57V39c1.3,0,2.3-1,2.3-2.3V35.4L59.3,35.4z"/>
	</g>
	<g>
		<polygon class="st0" points="57.3,20.3 42.8,20.3 42.8,22.6 57.3,22.6 57.3,20.3 		"/>
	</g>
	<g>
		<path class="st0" d="M57.2,20.3H57v8.6h2.3v-6.4C59.3,21.3,58.4,20.3,57.2,20.3L57.2,20.3z"/>
	</g>
	<g>
		<polygon class="st0" points="60.9,26.4 55.5,26.4 58.2,33.9 60.9,26.4 		"/>
	</g>
	<g>
		<path class="st0" d="M43.1,20.3c-1.3,0-2.3,1-2.3,2.3V24h2.3V20.3L43.1,20.3z"/>
	</g>
	<g>
		<polygon class="st0" points="41.9,25.4 39.2,32.9 44.6,32.9 41.9,25.4 		"/>
	</g>
	<g>
		<path class="st0" d="M58.2,16.2c2.9,0,5.3,2.4,5.3,5.3v17c0,2.9-2.4,5.3-5.3,5.3h-17c-2.9,0-5.3-2.4-5.3-5.3v-17
			c0-2.9,2.4-5.3,5.3-5.3H58.2 M58.2,15.3h-17c-3.4,0-6.1,2.7-6.1,6.1v17c0,3.4,2.7,6.1,6.1,6.1h17c3.4,0,6.1-2.7,6.1-6.1v-17
			C64.3,18.1,61.5,15.3,58.2,15.3L58.2,15.3z"/>
	</g>
	<g>
		<polygon class="st0" points="30.6,47.1 26.3,47.1 26.3,49.4 30.6,49.4 30.6,47.1 		"/>
	</g>
	<g>
		<path class="st0" d="M27,30.6h-2.3v16.6c0,1.2,1,2.1,2.1,2.1H27V30.6L27,30.6z"/>
	</g>
	<g>
		<polygon class="st0" points="25.9,24.3 23.1,31.8 28.6,31.8 25.9,24.3 		"/>
	</g>
	<g>
		<path class="st0" d="M33,4.3L33,4.3c-1.3,0-2.3,0.4-2.3,0.9v5.8H33V4.3L33,4.3z"/>
	</g>
	<g>
		<polygon class="st0" points="55.5,4.3 32.8,4.3 32.8,6.6 55.5,6.6 55.5,4.3 		"/>
	</g>
	<g>
		<polygon class="st0" points="54.4,2.9 54.4,8.4 61.9,5.6 54.4,2.9 		"/>
	</g>
	<g>
		<path class="st0" d="M68.9,49.1h-2.3v6.7h0c1.3,0,2.3-0.4,2.3-0.9V49.1L68.9,49.1z"/>
	</g>
	<g>
		<polygon class="st0" points="66.9,53.4 44.2,53.4 44.2,55.7 66.9,55.7 66.9,53.4 		"/>
	</g>
	<g>
		<polygon class="st0" points="45.2,51.6 37.7,54.4 45.2,57.1 45.2,51.6 		"/>
	</g>
	<g>
		<polygon class="st0" points="73.7,10.6 69.4,10.6 69.4,12.9 73.7,12.9 73.7,10.6 		"/>
	</g>
	<g>
		<path class="st0" d="M73.1,10.6H73v18.8h2.3V12.8C75.3,11.6,74.3,10.6,73.1,10.6L73.1,10.6z"/>
	</g>
	<g>
		<polygon class="st0" points="76.9,28.2 71.4,28.2 74.1,35.7 76.9,28.2 		"/>
	</g>
</g>
</svg>
