<?xml version="1.0" encoding="utf-8"?>
<!-- Generator: Adobe Illustrator 24.0.1, SVG Export Plug-In . SVG Version: 6.00 Build 0)  -->
<svg version="1.1" id="Layer_1" xmlns="http://www.w3.org/2000/svg" xmlns:xlink="http://www.w3.org/1999/xlink" x="0px" y="0px"
	 viewBox="0 0 100 60" style="enable-background:new 0 0 100 60;" xml:space="preserve">
<style type="text/css">
	.st0{fill:#DB192B;}
</style>
<g>
	<g>
		<path class="st0" d="M39.5,24.2l5.8,17.3h-9.6c-0.4,0-0.9-0.2-1.1-0.6c-0.2-0.3-0.3-0.9-0.2-1.2L39.5,24.2 M39.5,19l-6.7,20.2
			c-0.7,2,0.8,4.1,2.9,4.1h11.9L39.5,19L39.5,19z"/>
	</g>
	<g>
		<path class="st0" d="M39.4,24.5l4.9,14.7h-7.7c-0.4,0-0.9-0.2-1.2-0.7c-0.3-0.3-0.3-0.9-0.2-1.3L39.4,24.5 M39.4,22l-5,15
			c-0.4,1.4,0.7,3,2.2,3h8.9L39.4,22L39.4,22z"/>
	</g>
	<g>
		<path class="st0" d="M50.1,13c12,0,21.8,9.8,21.8,21.8s-9.8,21.8-21.8,21.8s-21.8-9.8-21.8-21.8S38.1,13,50.1,13 M50.1,11.3
			c-13,0-23.5,10.6-23.5,23.5s10.5,23.5,23.5,23.5s23.5-10.5,23.5-23.5S63.1,11.3,50.1,11.3L50.1,11.3z"/>
	</g>
	<g>
		<path class="st0" d="M60.4,24.2l5.1,15.5c0.1,0.4,0.1,0.9-0.2,1.2c-0.2,0.3-0.7,0.6-1.1,0.6h-9.6L60.4,24.2 M60.4,19l-8.1,24.3
			h11.9c2.1,0,3.6-2.1,2.9-4.1L60.4,19L60.4,19z"/>
	</g>
	<g>
		<path class="st0" d="M50,15.7c10.6,0,19.2,8.6,19.2,19.2S60.6,54.1,50,54.1s-19.2-8.6-19.2-19.2S39.4,15.7,50,15.7 M50,14.8
			c-11,0-20.1,8.9-20.1,20.1S38.9,55,50,55S70.1,46,70.1,34.9S61,14.8,50,14.8L50,14.8z"/>
	</g>
	<path class="st0" d="M48,32.8l-6.6,9.8l6.6,9.8c0.9,1.3,2.9,1.3,3.8,0l6.6-9.8l-6.6-9.8C50.9,31.4,48.9,31.4,48,32.8z"/>
	<path class="st0" d="M49.8,1.7l-3.1,9c-0.3,0.9,0.3,1.8,1.3,1.8h5.3L49.8,1.7z"/>
	<g>
		<path class="st0" d="M60.5,24.5l4.2,12.7c0.1,0.4,0.1,0.9-0.2,1.3c-0.3,0.3-0.7,0.7-1.2,0.7h-7.7L60.5,24.5 M60.5,22l-6,18.2h8.9
			c1.6,0,2.7-1.6,2.2-3L60.5,22L60.5,22z"/>
	</g>
	<path class="st0" d="M16.4,34.1l9.1-3c0.9-0.3,1.8,0.3,1.8,1.3v5.3L16.4,34.1z"/>
	<path class="st0" d="M83.6,34.1l-9.1-3c-0.9-0.3-1.8,0.3-1.8,1.3v5.3L83.6,34.1z"/>
</g>
</svg>
