<?xml version="1.0" encoding="utf-8"?>
<!-- Generator: Adobe Illustrator 24.0.1, SVG Export Plug-In . SVG Version: 6.00 Build 0)  -->
<svg version="1.1" id="Layer_1" xmlns="http://www.w3.org/2000/svg" xmlns:xlink="http://www.w3.org/1999/xlink" x="0px" y="0px"
	 viewBox="0 0 100 60" style="enable-background:new 0 0 100 60;" xml:space="preserve">
<style type="text/css">
	.st0{fill:none;stroke:#DB192B;stroke-width:0.9336;stroke-miterlimit:10;}
	.st1{fill:#DB192B;}
</style>
<g>
	<rect x="9.5" y="4.8" class="st0" width="10" height="10"/>
	<rect x="9.5" y="25.1" class="st0" width="10" height="10"/>
	<rect x="9.5" y="35.2" class="st0" width="10" height="10"/>
	<rect x="9.5" y="45.4" class="st0" width="10" height="10"/>
	<rect x="19.6" y="4.8" class="st0" width="10" height="10"/>
	<rect x="19.6" y="45.4" class="st0" width="10" height="10"/>
	<rect x="29.8" y="4.8" class="st0" width="10" height="10"/>
	<rect x="29.8" y="25.1" class="st0" width="10" height="10"/>
	<rect x="29.8" y="45.4" class="st0" width="10" height="10"/>
	<rect x="39.9" y="4.8" class="st0" width="10" height="10"/>
	<rect x="39.9" y="14.9" class="st0" width="10" height="10"/>
	<rect x="39.9" y="25.1" class="st0" width="10" height="10"/>
	<rect x="39.9" y="45.4" class="st0" width="10" height="10"/>
	<rect x="50.1" y="4.8" class="st0" width="10" height="10"/>
	<rect x="50.1" y="45.4" class="st0" width="10" height="10"/>
	<rect x="60.2" y="4.8" class="st0" width="10" height="10"/>
	<rect x="60.2" y="25.1" class="st0" width="10" height="10"/>
	<rect x="60.2" y="35.2" class="st0" width="10" height="10"/>
	<rect x="60.2" y="45.4" class="st0" width="10" height="10"/>
	<rect x="70.4" y="4.8" class="st0" width="10" height="10"/>
	<rect x="70.4" y="45.4" class="st0" width="10" height="10"/>
	<rect x="80.5" y="4.8" class="st0" width="10" height="10"/>
	<rect x="80.5" y="14.9" class="st0" width="10" height="10"/>
	<rect x="80.5" y="25.1" class="st0" width="10" height="10"/>
	<rect x="80.5" y="45.4" class="st0" width="10" height="10"/>
	<line class="st0" x1="9.4" y1="7.6" x2="90.6" y2="7.6"/>
	<line class="st0" x1="9.4" y1="52.4" x2="90.6" y2="52.4"/>
	<line class="st0" x1="12.2" y1="24.9" x2="12.2" y2="55.7"/>
	<line class="st0" x1="87.8" y1="4.3" x2="87.8" y2="35.1"/>
	<rect x="8.9" y="17.4" class="st1" width="28.9" height="4.7"/>
	
		<rect x="13.2" y="28.5" transform="matrix(-1.836970e-16 1 -1 -1.836970e-16 55.3762 6.2576)" class="st1" width="22.6" height="4.7"/>
	
		<rect x="22.2" y="37.8" transform="matrix(-1 -1.224647e-16 1.224647e-16 -1 79.6792 80.3059)" class="st1" width="35.3" height="4.7"/>
	
		<rect x="43.4" y="28.2" transform="matrix(-1.836970e-16 1 -1 -1.836970e-16 85.8971 -24.8393)" class="st1" width="23.9" height="4.7"/>
	
		<rect x="53" y="17.7" transform="matrix(-1 -1.224647e-16 1.224647e-16 -1 131.087 40.1609)" class="st1" width="25" height="4.7"/>
	<rect x="64" y="29" transform="matrix(6.123234e-17 -1 1 6.123234e-17 44.3612 107.1037)" class="st1" width="23.4" height="4.7"/>
	<rect x="73.4" y="38.4" class="st1" width="17.7" height="4.7"/>
</g>
</svg>
