<?xml version="1.0" encoding="utf-8"?>
<!-- Generator: Adobe Illustrator 24.0.1, SVG Export Plug-In . SVG Version: 6.00 Build 0)  -->
<svg version="1.1" id="Layer_1" xmlns="http://www.w3.org/2000/svg" xmlns:xlink="http://www.w3.org/1999/xlink" x="0px" y="0px"
	 viewBox="0 0 100 60" style="enable-background:new 0 0 100 60;" xml:space="preserve">
<style type="text/css">
	.st0{fill:#DB192B;}
</style>
<g>
	<g>
		<path class="st0" d="M69.3,5.5l6.1,6.1v5.3L69.3,23H64l-6-6.2v-5.3l6-6H69.3 M70.6,2.3h-7.9l-7.9,7.9v7.9l7.9,7.9h7.9l7.9-7.9
			v-7.9L70.6,2.3L70.6,2.3z"/>
	</g>
	<g>
		<path class="st0" d="M56.3,12.8v2.4H43.6v-2.4L56.3,12.8 M57.1,12H42.8v4h14.3V12L57.1,12z"/>
	</g>
	<g>
		<path class="st0" d="M34.5,24.3v11.9h-2.4V24.3H34.5 M35.3,23.5h-4V37h4V23.5L35.3,23.5z"/>
	</g>
	<g>
		<path class="st0" d="M56.3,44.5v2.4H43.6v-2.4H56.3 M57.1,43.7H42.8v4h14.3V43.7L57.1,43.7z"/>
	</g>
	<g>
		<path class="st0" d="M68.5,8.1l4.2,4.2v4l-4.2,4.2h-4l-4.2-4.2v-4l4.2-4.2L68.5,8.1 M68.9,7.3h-4.7L59.5,12v4.7l4.7,4.7h4.7
			l4.7-4.7V12L68.9,7.3L68.9,7.3z"/>
	</g>
	<g>
		<path class="st0" d="M36,5.5l6.1,6.1v5.3L36,22.8h-5.3l-6.1-6.1v-5.3l6.1-6.1H36 M37.3,2.3h-7.9l-7.9,7.9v7.9l7.9,7.9h7.9l7.9-7.9
			v-7.9L37.3,2.3L37.3,2.3z"/>
	</g>
	<g>
		<path class="st0" d="M34.9,9.3h-3.3l-3.3,3.3V16l3.3,3.3h3.3l3.3-3.3v-3.3L34.9,9.3L34.9,9.3z"/>
	</g>
	<g>
		<path class="st0" d="M35.2,8.1l4.2,4.2v4l-4.2,4.2h-4L27,16.3v-4l4.2-4.2L35.2,8.1 M35.6,7.3h-4.7L26.2,12v4.7l4.7,4.7h4.7
			l4.7-4.7V12L35.6,7.3L35.6,7.3z"/>
	</g>
	<g>
		<path class="st0" d="M69.3,37.2l6.1,6.1v5.3l-6.1,6.1H64l-6-6.2v-5.3l6.1-6.1L69.3,37.2 M70.6,34h-7.9l-7.9,7.9v7.9l7.9,7.9h7.9
			l7.9-7.9v-7.9L70.6,34L70.6,34z"/>
	</g>
	<g>
		<path class="st0" d="M68.5,39.8l4.2,4.2v4l-4.2,4.2h-4L60.3,48v-4l4.2-4.2H68.5 M68.9,39h-4.7l-4.7,4.7v4.7l4.7,4.7h4.7l4.7-4.7
			v-4.7L68.9,39L68.9,39z"/>
	</g>
	<g>
		<path class="st0" d="M36,37.2l6.1,6.1v5.3L36,54.5h-5.3l-6.1-6.1v-5.3l6.1-6.1H36 M37.3,34h-7.9l-7.9,7.9v7.9l7.9,7.9h7.9l7.9-7.9
			v-7.9L37.3,34L37.3,34z"/>
	</g>
	<g>
		<path class="st0" d="M35.2,39.8l4.2,4.2v4l-4.2,4.2h-4L27,48v-4l4.2-4.2H35.2 M35.6,39h-4.7l-4.7,4.7v4.7l4.7,4.7h4.7l4.7-4.7
			v-4.7L35.6,39L35.6,39z"/>
	</g>
</g>
</svg>
