<?xml version="1.0" encoding="utf-8"?>
<!-- Generator: Adobe Illustrator 24.0.1, SVG Export Plug-In . SVG Version: 6.00 Build 0)  -->
<svg version="1.1" id="Layer_1" xmlns="http://www.w3.org/2000/svg" xmlns:xlink="http://www.w3.org/1999/xlink" x="0px" y="0px"
	 viewBox="0 0 190 190" style="enable-background:new 0 0 190 190;" xml:space="preserve">
<style type="text/css">
	.st0{fill:#B7B734;}
	.st1{fill:#B9EFE6;}
	.st2{fill:#C69459;}
	.st3{fill:#AE7FE5;}
	.st4{fill:#26329E;}
	.st5{fill:#2E3D3B;}
	.st6{fill:#DB12D2;}
</style>
<path id="_x34_" class="st0" d="M139.2,51.5H32.6l-9.3-13.9h125.2L139.2,51.5z"/>
<path id="_x31_4" class="st1" d="M153.1,93.3h-88l6.5,13.9h53.9l-25.6,62.6l9.6,11.8l30.4-74.4h6.7L153.1,93.3z"/>
<path id="_x31_6" class="st2" d="M98,19.4v51.4l-13.9,4.4V15L98,19.4z"/>
<polygon id="_x36_" class="st3" points="129.9,9.8 133.4,23.7 150,23.7 120.5,95.6 130.1,107.4 164.3,23.7 172.9,23.7 176.3,9.8 "/>
<polygon id="_x38_" class="st4" points="41.9,65.5 48.8,79.4 55.8,79.4 87.8,153.8 97.9,142 70.9,79.4 127.1,79.4 132.8,65.5 "/>
<path id="_x37_" class="st5" d="M33,65.2l40.9,98.1l-9.2,13.8l-48-111.6L33,65.2z"/>
<path id="_x31_5" class="st6" d="M66.6,23.7H15L10.4,9.8h60.9L66.6,23.7z"/>
</svg>
