<?xml version="1.0" encoding="utf-8"?>
<!-- Generator: Adobe Illustrator 24.0.1, SVG Export Plug-In . SVG Version: 6.00 Build 0)  -->
<svg version="1.1" id="Layer_1" xmlns="http://www.w3.org/2000/svg" xmlns:xlink="http://www.w3.org/1999/xlink" x="0px" y="0px"
	 viewBox="0 0 190 190" style="enable-background:new 0 0 190 190;" xml:space="preserve">
<style type="text/css">
	.st0{fill:#73BC7C;}
	.st1{fill:#B2852D;}
	.st2{fill:#28681C;}
	.st3{fill:#3048BF;}
	.st4{fill:#0F6052;}
	.st5{fill:#D89041;}
</style>
<g id="centralShape">
	<polygon id="_x31_6_1_" class="st0" points="48,89 31.2,131 16.3,129.3 35.9,79.9 	"/>
	<g id="_x31_3">
		<polygon class="st1" points="56.9,133 135.2,133 142,118.5 50.1,118.5 		"/>
		<polygon class="st1" points="104.6,108.8 63.3,108.8 59.7,94.3 108.1,94.3 		"/>
	</g>
	<g id="_x39_">
		<polygon class="st2" points="21.5,178.6 38.4,175.3 80.7,72.6 68.4,60.8 		"/>
		<polygon class="st2" points="108.1,94.3 98.9,106.1 130.6,181.6 146.4,183.2 		"/>
	</g>
	<polygon id="_x33_" class="st3" points="146.9,31.4 35.5,31.4 25.9,16.8 156.6,16.8 	"/>
	<polygon id="_x32_" class="st4" points="89.3,7.7 89.3,41.1 64.6,41.1 69.4,55.6 88.8,55.6 89.3,54 89.3,70.6 103.8,66 103.8,12.4 
			"/>
	<polygon id="_x36__1_" class="st5" points="170.6,130 141.7,61.1 142,60.4 141.4,60.4 133.4,41.4 123.1,52.9 126.3,60.4 45.2,60.4 
		52.4,74.9 132.4,74.9 154.8,128.3 	"/>
</g>
</svg>
