<?xml version="1.0" encoding="utf-8"?>
<!-- Generator: Adobe Illustrator 24.0.1, SVG Export Plug-In . SVG Version: 6.00 Build 0)  -->
<svg version="1.1" id="Layer_1" xmlns="http://www.w3.org/2000/svg" xmlns:xlink="http://www.w3.org/1999/xlink" x="0px" y="0px"
	 viewBox="0 0 190 190" style="enable-background:new 0 0 190 190;" xml:space="preserve">
<style type="text/css">
	.st0{fill:#409183;}
	.st1{fill:#D89041;}
	.st2{fill:#CE3257;}
	.st3{fill:#496ED6;}
</style>
<g id="centralShape_1_">
	<polygon id="_x31_2" class="st0" points="48.6,149.9 57.2,129 132.3,129 141.1,113.7 63.5,113.7 80.4,72.6 67.5,60.2 46.2,113.7 
		22.4,113.7 31.2,129 40.1,129 18.3,183.7 36.2,180.2 44.5,159.9 47.5,165.2 147.6,165.2 156.3,149.9 	"/>
	<polygon id="_x36__2_" class="st1" points="153.5,29.5 122.5,29.5 116.2,9.7 100.1,9.4 106.5,29.5 40.5,29.5 48.8,44.8 111.3,44.8 
		121,75.2 134,65.7 127.3,44.8 145.1,44.8 	"/>
	<polygon id="_x31_4" class="st2" points="81.3,69.1 82.3,68.8 82.3,20.2 67,15.9 67,69.1 36.5,69.1 46.7,84.3 163.7,84.3 
		173.8,69.1 	"/>
	<g id="_x31_0">
		<polygon class="st2" points="133.1,96 122.8,107.1 156.5,182.4 172.6,184.3 		"/>
		<polygon class="st2" points="166.8,79.8 154.3,70.8 140.4,97.7 154.9,102.7 		"/>
	</g>
	<polygon id="_x35_" class="st3" points="40.9,53.2 20.2,91.6 5.3,86.5 28.2,44 	"/>
	<g id="_x31_">
		<polygon class="st3" points="83.4,179.3 98.7,172.9 98.7,99.2 83.4,92.8 		"/>
		<polygon class="st3" points="159.9,111.5 146,138.3 160.6,143.4 172.5,120.5 		"/>
	</g>
</g>
</svg>
