<?xml version="1.0" encoding="utf-8"?>
<!-- Generator: Adobe Illustrator 24.0.1, SVG Export Plug-In . SVG Version: 6.00 Build 0)  -->
<svg version="1.1" id="Layer_1" xmlns="http://www.w3.org/2000/svg" xmlns:xlink="http://www.w3.org/1999/xlink" x="0px" y="0px"
	 viewBox="0 0 30 23" style="enable-background:new 0 0 30 23;" xml:space="preserve">
<style type="text/css">
	.st0{fill:#DB192B;}
</style>
<polygon class="st0" points="6.5,13 6.3,13.8 22.8,13.8 22.8,13 "/>
<polygon class="st0" points="6.5,10.2 7,11.6 22.8,11.6 22.8,10.2 "/>
<polygon class="st0" points="5.8,15.3 5.6,16 22.8,16 22.8,15.3 "/>
<polygon class="st0" points="5.4,7.5 5.9,8.9 22.8,8.9 22.8,7.5 "/>
<polygon class="st0" points="4.3,4.7 4.8,6.1 22.8,6.1 22.8,4.7 "/>
<polygon class="st0" points="4.1,20.1 27.2,20.1 27.2,19.4 4.2,19.4 "/>
<polygon class="st0" points="5,17.3 4.8,18 27.2,18 27.2,17.3 "/>
<polygon class="st0" points="28.3,16.6 28.3,21.8 1.7,21.8 5.9,11.6 1.7,1.1 21.9,1.1 21.9,2.3 3.3,2.3 3.8,3.4 22.8,3.4 22.8,0.2 
	0.3,0.2 4.9,11.6 0.3,22.7 29.2,22.7 29.2,16.6 "/>
</svg>
