<?xml version="1.0" encoding="utf-8"?>
<!-- Generator: Adobe Illustrator 23.1.1, SVG Export Plug-In . SVG Version: 6.00 Build 0)  -->
<svg version="1.1" id="Layer_1" xmlns="http://www.w3.org/2000/svg" xmlns:xlink="http://www.w3.org/1999/xlink" x="0px" y="0px"
	 viewBox="0 0 512 512" style="enable-background:new 0 0 512 512;" xml:space="preserve">
<style type="text/css">
	.st0{fill:#CC4D1B;}
	.st1{fill:none;}
	.st2{fill:#CC4D1B;stroke:#CC4D1B;stroke-width:4.6875;stroke-miterlimit:10;}
	.st3{fill:#CC4D1B;stroke:#CC4D1B;stroke-width:3.9062;stroke-miterlimit:10;}
</style>
<rect x="112.1" y="447.8" class="st0" width="279.6" height="16.7"/>
<rect x="238.7" y="66.7" class="st0" width="31.2" height="214.2"/>
<g>
	<path class="st1" d="M145.3,377c-0.4,0-0.9,0-1.3,0C144.4,377,144.9,377,145.3,377z"/>
	<path class="st1" d="M368,372c-13,0-23.6-9.9-24.9-22.5c-0.1,0.8-0.1,1.7-0.1,2.5c0,13.8,11.2,25,25,25c13.8,0,25-11.2,25-25
		c0-0.8,0-1.7-0.1-2.5C391.6,362.1,381,372,368,372z"/>
	<path class="st1" d="M144,377c-0.4,0-0.9,0-1.3,0C143.1,377,143.6,377,144,377z"/>
	<path class="st1" d="M432,360V72c0-19-13.4-35.4-32-39.2V252c0,22.1-17.9,40-40,40H152c-22.1,0-40-17.9-40-40V32.8
		C93.4,36.6,80,53,80,72v288c0,22.1,17.9,40,40,40h272C414.1,400,432,382.1,432,360z M392,397.5H120c-20.7,0-37.5-16.8-37.5-37.5V72
		c0-16.7,11.2-31.4,27-36v216c0,23.4,19.1,42.5,42.5,42.5h208c23.4,0,42.5-19.1,42.5-42.5V36c15.8,4.6,27,19.3,27,36v288
		C429.5,380.7,412.7,397.5,392,397.5z"/>
	<path class="st1" d="M429.5,72c0-16.7-11.2-31.4-27-36v216c0,23.4-19.1,42.5-42.5,42.5H152c-23.4,0-42.5-19.1-42.5-42.5V36
		c-15.8,4.6-27,19.3-27,36v288c0,20.7,16.8,37.5,37.5,37.5h272c20.7,0,37.5-16.8,37.5-37.5V72z M145.3,377c-0.4,0-0.9,0-1.3,0
		c-0.4,0-0.9,0-1.3,0c-16-0.7-28.7-13.8-28.7-30c0-16.6,13.4-30,30-30s30,13.4,30,30C174,363.1,161.3,376.3,145.3,377z M393,352
		c0,13.8-11.2,25-25,25c-13.8,0-25-11.2-25-25c0-0.8,0-1.7,0.1-2.5c-0.1-0.8-0.1-1.6-0.1-2.5c0-13.8,11.2-25,25-25s25,11.2,25,25
		c0,0.8,0,1.7-0.1,2.5C393,350.3,393,351.2,393,352z"/>
	<path class="st0" d="M403.5,491.2c1,1.5,2.7,2.3,4.5,2.3h48c3,0,5.5-2.5,5.5-5.5c0-1.1-0.3-2.2-1-3.2l-51.8-74l2.9-1.2
		c20.5-8.1,33.8-27.6,33.8-49.7V72c0-29.5-24-53.5-53.5-53.5H120c-29.5,0-53.5,24-53.5,53.5v288c0,22.1,13.3,41.6,33.8,49.7l2.9,1.2
		l-51.8,74c-0.8,1.2-1.2,2.7-0.9,4.1s1.1,2.7,2.3,3.5c0.9,0.7,2,1,3.2,1h48c1.8,0,3.5-0.9,4.5-2.3l9.6-13.7h3.1l7.7-11h-3.1l14.7-21
		h3.1L153,432l11.2-16h183.7l11.2,16l9.5,13.5h3.1l14.7,21h-3.1l7.7,11h3.1L403.5,491.2z M125.5,237.5h2.5v-11h-2.5v-165h2.5v-11
		h-2.5v-21h261v21H384v11h2.5v165H384v11h2.5V252c0,14.6-11.9,26.5-26.5,26.5H152c-14.6,0-26.5-11.9-26.5-26.5V237.5z M101.1,482.5
		H66.6l48.3-69h34.6L101.1,482.5z M120,402.5c-23.4,0-42.5-19.1-42.5-42.5V72c0-20.1,14.3-37.6,34-41.6l3-0.6V252
		c0,20.7,16.8,37.5,37.5,37.5h208c20.7,0,37.5-16.8,37.5-37.5V29.7l3,0.6c19.7,4,34,21.6,34,41.6v288c0,23.4-19.1,42.5-42.5,42.5
		H120z M362.6,413.5h34.6l48.3,69h-34.6L362.6,413.5z"/>
	<polygon class="st0" points="128,32 384,32 384,48 384,50.5 386.5,50.5 386.5,29.5 125.5,29.5 125.5,50.5 128,50.5 128,48 	"/>
	<polygon class="st0" points="128,64 128,61.5 125.5,61.5 125.5,226.5 128,226.5 128,224 	"/>
	<polygon class="st0" points="384,224 384,226.5 386.5,226.5 386.5,61.5 384,61.5 384,64 	"/>
	<path class="st0" d="M445.4,482.5l-48.3-69h-34.6l48.3,69H445.4z M395.8,416l44.8,64h-28.5l-44.8-64H395.8z"/>
	<path class="st0" d="M440.6,480l-44.8-64h-28.5l44.8,64H440.6z M394.5,418.5l41.3,59h-22.4l-41.3-59H394.5z"/>
	<polygon class="st0" points="435.8,477.5 394.5,418.5 372.2,418.5 413.5,477.5 	"/>
	<polygon class="st0" points="371.5,445.5 368.5,445.5 383.2,466.5 386.2,466.5 	"/>
	<polygon class="st0" points="125.8,466.5 128.8,466.5 130.6,464 141.8,448 143.5,445.5 140.5,445.5 	"/>
	<path class="st0" d="M462.6,483.4l-50-71.4c21.3-8.5,35.4-29.1,35.4-52V72c0-30.9-25.1-56-56-56H120c-30.9,0-56,25.1-56,56v288
		c0,23,14.1,43.6,35.4,52l-50,71.4c-2.5,3.6-1.7,8.6,2,11.1c1.3,0.9,2.9,1.4,4.6,1.4h48c2.6,0,5.1-1.3,6.6-3.4l8.8-12.6l1.8-2.5
		h-3.1l-9.6,13.7c-1,1.5-2.7,2.3-4.5,2.3H56c-1.1,0-2.2-0.3-3.2-1c-1.2-0.8-2-2.1-2.3-3.5s0.1-2.9,0.9-4.1l51.8-74l-2.9-1.2
		c-20.5-8.1-33.8-27.6-33.8-49.7V72c0-29.5,24-53.5,53.5-53.5h272c29.5,0,53.5,24,53.5,53.5v288c0,22.1-13.3,41.6-33.8,49.7
		l-2.9,1.2l51.8,74c0.6,0.9,1,2,1,3.2c0,3-2.5,5.5-5.5,5.5h-48c-1.8,0-3.5-0.9-4.5-2.3l-9.6-13.7h-3.1l1.8,2.5l8.8,12.6
		c1.5,2.1,3.9,3.4,6.6,3.4h48c4.4,0,8-3.6,8-8C464,486.4,463.5,484.8,462.6,483.4z"/>
	<path class="st0" d="M434.5,360V72c0-20.1-14.3-37.6-34-41.6l-3-0.6V252c0,20.7-16.8,37.5-37.5,37.5H152
		c-20.7,0-37.5-16.8-37.5-37.5V29.7l-3,0.6c-19.7,4-34,21.6-34,41.6v288c0,23.4,19.1,42.5,42.5,42.5h272
		C415.4,402.5,434.5,383.4,434.5,360z M120,400c-22.1,0-40-17.9-40-40V72c0-19,13.4-35.4,32-39.2V252c0,22.1,17.9,40,40,40h208
		c22.1,0,40-17.9,40-40V32.8c18.6,3.8,32,20.2,32,39.2v288c0,22.1-17.9,40-40,40H120z"/>
	<path class="st0" d="M152,278.5h208c14.6,0,26.5-11.9,26.5-26.5v-14.5H384v2.5v12c0,13.2-10.8,24-24,24H152c-13.2,0-24-10.8-24-24
		v-12v-2.5h-2.5V252C125.5,266.6,137.4,278.5,152,278.5z"/>
	<path class="st0" d="M66.6,482.5h34.6l48.3-69h-34.6L66.6,482.5z M144.6,416l-44.8,64H71.4l44.8-64H144.6z"/>
	<path class="st0" d="M99.8,480l44.8-64h-28.5l-44.8,64H99.8z M117.5,418.5h22.4l-41.3,59H76.2L117.5,418.5z"/>
	<polygon class="st0" points="98.5,477.5 139.8,418.5 117.5,418.5 76.2,477.5 	"/>
	<path class="st2" d="M169,352c0-13.8-11.2-25-25-25s-25,11.2-25,25c0,13.4,10.5,24.3,23.7,25c0.4,0,0.9,0,1.3,0c0.4,0,0.9,0,1.3,0
		C158.5,376.3,169,365.4,169,352z"/>
	<path class="st2" d="M144,317c-16.6,0-30,13.4-30,30c0,16.1,12.8,29.3,28.7,30c-13.2-0.7-23.7-11.6-23.7-25c0-13.8,11.2-25,25-25
		s25,11.2,25,25c0,13.4-10.5,24.3-23.7,25c16-0.7,28.7-13.8,28.7-30C174,330.4,160.6,317,144,317z"/>
	<path class="st3" d="M368,327c-13,0-23.6,9.9-24.9,22.5C344.4,362.1,355,372,368,372c13,0,23.6-9.9,24.9-22.5
		C391.6,336.9,381,327,368,327z"/>
	<path class="st3" d="M368,322c-13.8,0-25,11.2-25,25c0,0.8,0,1.7,0.1,2.5C344.4,336.9,355,327,368,327c13,0,23.6,9.9,24.9,22.5
		c0.1-0.8,0.1-1.7,0.1-2.5C393,333.2,381.8,322,368,322z"/>
</g>
<rect x="125.5" y="61.5" class="st0" width="263.5" height="15.6"/>
</svg>
