<?xml version="1.0" encoding="utf-8"?>
<!-- Generator: Adobe Illustrator 24.0.1, SVG Export Plug-In . SVG Version: 6.00 Build 0)  -->
<svg version="1.1" id="Layer_1" xmlns="http://www.w3.org/2000/svg" xmlns:xlink="http://www.w3.org/1999/xlink" x="0px" y="0px"
	 viewBox="0 0 40 40" style="enable-background:new 0 0 40 40;" xml:space="preserve">
<style type="text/css">
	.st0{fill:#3B3D3D;}
	.st1{fill:#777777;}
</style>
<g>
	<path class="st0" d="M32.6,30.2v2.4H7.4V21.1H3.3v11.6c0,2.1,1.6,3.9,3.7,4.1v0h25.6h0h0.5v-0.1c2-0.3,3.6-2,3.6-4.1v-2.4H32.6z"/>
	<path class="st0" d="M33.1,3.3L33.1,3.3L7,3.3v0c-2,0.2-3.6,2-3.6,4.1v2.4h4.1V7.4h25.1v11.3h4.1V7.4C36.7,5.3,35.1,3.6,33.1,3.3z"
		/>
	<polygon class="st1" points="39.6,14.2 34.6,27.7 29.7,14.2 	"/>
	<polygon class="st1" points="0.4,25.8 5.4,12.3 10.3,25.8 	"/>
</g>
</svg>
