<?xml version="1.0" encoding="utf-8"?>
<!-- Generator: Adobe Illustrator 24.0.1, SVG Export Plug-In . SVG Version: 6.00 Build 0)  -->
<svg version="1.1" id="all" xmlns="http://www.w3.org/2000/svg" xmlns:xlink="http://www.w3.org/1999/xlink" x="0px" y="0px"
	 viewBox="0 0 170 120" style="enable-background:new 0 0 170 120;" xml:space="preserve">
<style type="text/css">
	.st0{fill:#FF4B78;}
	.st1{fill:#D73236;}
	.st2{fill:#D73335;}
</style>
<g id="shape">
	<g>
		<polygon class="st0" points="56.6,95.9 67.9,117.7 157.3,117.7 167.9,82.2 155.8,74 165.5,62.7 153.4,39.3 146.1,36.1 146.1,26.3 
			124.2,9.3 116.2,10.1 109.7,3.7 83,2.1 76.5,13.4 67.6,2.9 39.3,13.4 36.1,21.4 28,20.7 9.6,41.7 17.1,50.6 4.8,57.3 2.1,87.8 
			2.1,88.7 		"/>
	</g>
	<g>
		<path class="st1" d="M157.3,119.8H67.9c-0.8,0-1.5-0.4-1.9-1.1L55.2,97.8L1.8,90.7c-1-0.1-1.8-1-1.8-2.1v-0.8c0-0.1,0-0.1,0-0.2
			l2.7-30.5c0.1-0.7,0.5-1.3,1.1-1.7L13.9,50L8,43.1c-0.7-0.8-0.7-2,0-2.7l18.4-21c0.4-0.5,1.1-0.8,1.8-0.7l6.5,0.6l2.7-6.6
			c0.2-0.5,0.7-1,1.2-1.2L66.9,1c0.8-0.3,1.7-0.1,2.3,0.6l7,8.2l5-8.7c0.4-0.7,1.1-1.1,1.9-1l26.7,1.6c0.5,0,1,0.2,1.4,0.6l5.8,5.8
			l7.1-0.7c0.5-0.1,1.1,0.1,1.5,0.4l21.9,17c0.5,0.4,0.8,1,0.8,1.6v8.4l6.1,2.7c0.4,0.2,0.8,0.5,1,1l12.1,23.4
			c0.4,0.8,0.3,1.7-0.3,2.3l-8.2,9.5l10.2,6.8c0.8,0.5,1.1,1.5,0.8,2.3l-10.6,35.5C159.1,119.2,158.3,119.8,157.3,119.8z
			 M69.1,115.6h86.7l9.7-32.6l-10.9-7.3c-0.5-0.3-0.8-0.9-0.9-1.5c-0.1-0.6,0.1-1.2,0.5-1.6l8.8-10.2l-11.1-21.5l-6.6-2.9
			c-0.8-0.3-1.2-1.1-1.2-1.9v-8.7l-20.4-15.9l-7.2,0.7c-0.6,0.1-1.2-0.2-1.7-0.6l-5.9-5.9L84.2,4.3l-5.8,10.2c-0.3,0.6-0.9,1-1.6,1
			c-0.7,0.1-1.3-0.2-1.8-0.7l-8-9.4L40.9,15L38,22.2c-0.3,0.9-1.2,1.4-2.1,1.3l-7-0.6L12.4,41.7l6.4,7.5c0.4,0.5,0.6,1.1,0.5,1.7
			c-0.1,0.6-0.5,1.2-1.1,1.5L6.8,58.6L4.3,86.8l52.6,7c0.7,0.1,1.3,0.5,1.6,1.1L69.1,115.6z"/>
	</g>
</g>
<g>
	<path class="st2" d="M38.9,75.2C38.9,75.2,38.9,75.2,38.9,75.2l-13.4-0.4c-1.2,0-2.1-1-2-2.2c0-1.2,1-2.1,2.2-2L38.1,71l30-30
		L61.6,24c-0.4-1.1,0.1-2.3,1.2-2.7c1.1-0.4,2.3,0.1,2.7,1.2l6.9,18.2c0.3,0.8,0.1,1.6-0.5,2.2L40.4,74.6C40,75,39.5,75.2,38.9,75.2
		z"/>
</g>
<g>
	<path class="st2" d="M54.3,59.8c-0.4,0-0.8-0.1-1.1-0.3L35,47.8c-1-0.6-1.3-1.9-0.6-2.9c0.6-1,1.9-1.3,2.9-0.6l18.2,11.7
		c1,0.6,1.3,1.9,0.6,2.9C55.7,59.5,55,59.8,54.3,59.8z"/>
</g>
<g>
	<path class="st2" d="M68.8,75.2c-0.8,0-1.6-0.5-1.9-1.3l-8.1-20.2c-0.4-1.1,0.1-2.3,1.2-2.7c1.1-0.4,2.3,0.1,2.7,1.2l8.1,20.2
		c0.4,1.1-0.1,2.3-1.2,2.7C69.3,75.1,69.1,75.2,68.8,75.2z"/>
</g>
<g>
	<path class="st2" d="M81.8,74.3c-0.5,0-0.9-0.2-1.3-0.5c-0.9-0.7-1-2-0.3-2.9l18.2-22.2c0.7-0.9,2-1,2.9-0.3c0.9,0.7,1,2,0.3,2.9
		L83.4,73.5C83,74,82.4,74.3,81.8,74.3z"/>
</g>
<g>
	<path class="st2" d="M54.3,96.2c-0.4,0-0.8-0.1-1.2-0.4c-1-0.7-1.2-2-0.5-2.9l14.5-21c0.4-0.6,1-0.9,1.7-0.9h48.6
		c1.2,0,2.1,0.9,2.1,2.1s-0.9,2.1-2.1,2.1H69.9L56,95.3C55.6,95.9,55,96.2,54.3,96.2z"/>
</g>
<g>
	<path class="st2" d="M142.8,95.8c-0.2,0-0.5,0-0.7-0.1l-12.5-4.4c-1.1-0.4-1.7-1.6-1.3-2.7c0.4-1.1,1.6-1.7,2.7-1.3l12.5,4.4
		c1.1,0.4,1.7,1.6,1.3,2.7C144.5,95.3,143.7,95.8,142.8,95.8z"/>
</g>
<g>
	<path class="st2" d="M123.8,101.8C123.8,101.8,123.8,101.8,123.8,101.8l-46.9-1.1c-1.2,0-2.1-1-2-2.1c0-1.2,1-2,2.1-2l45.7,1.1
		l11.2-19.4l-0.3-15.9c0-0.9,0.6-1.7,1.4-2l7.2-2.5c1.1-0.4,2.3,0.2,2.7,1.3c0.4,1.1-0.2,2.3-1.3,2.7l-5.8,2l0.3,15
		c0,0.4-0.1,0.8-0.3,1.1l-12.1,21C125.2,101.4,124.5,101.8,123.8,101.8z"/>
</g>
<g>
	<path class="st2" d="M135.6,64.3c-0.3,0-0.7-0.1-1-0.2l-13.8-7.3c-1-0.5-1.4-1.8-0.9-2.8c0.5-1,1.8-1.4,2.8-0.9l13.8,7.3
		c1,0.5,1.4,1.8,0.9,2.8C137.1,63.9,136.3,64.3,135.6,64.3z"/>
</g>
<g>
	<path class="st2" d="M128.3,40.8c-0.3,0-0.6-0.1-0.9-0.2l-32-14.3l-5,7.1c-0.7,0.9-2,1.2-2.9,0.5c-0.9-0.7-1.2-2-0.5-2.9l6-8.5
		c0.6-0.8,1.6-1.1,2.6-0.7l33.6,15c1.1,0.5,1.5,1.7,1.1,2.8C129.9,40.3,129.1,40.8,128.3,40.8z"/>
</g>
</svg>
