<?xml version="1.0" encoding="utf-8"?>
<!-- Generator: Adobe Illustrator 23.1.1, SVG Export Plug-In . SVG Version: 6.00 Build 0)  -->
<svg version="1.1" id="all" xmlns="http://www.w3.org/2000/svg" xmlns:xlink="http://www.w3.org/1999/xlink" x="0px" y="0px"
	 viewBox="0 0 170 120" style="enable-background:new 0 0 170 120;" xml:space="preserve">
<style type="text/css">
	.st0{fill:#AFA8A8;}
	.st1{fill:#7A7474;}
	.st2{fill:none;stroke:#7A7474;stroke-width:4.182;stroke-linecap:round;stroke-linejoin:round;stroke-miterlimit:10;}
</style>
<g id="shape">
	<polygon class="st0" points="56.6,95.9 67.9,117.7 157.3,117.7 167.9,82.2 155.8,74 165.5,62.7 153.4,39.3 146.1,36.1 146.1,26.3 
		124.2,9.3 116.2,10.1 109.7,3.7 83,2.1 76.5,13.4 67.6,2.9 39.3,13.4 36.1,21.4 28,20.7 9.6,41.7 17.1,50.6 4.8,57.3 2.1,87.8 
		2.1,88.7 	"/>
	<path class="st1" d="M157.3,119.8H67.9c-0.8,0-1.5-0.4-1.9-1.1L55.2,97.8L1.8,90.7c-1-0.1-1.8-1-1.8-2.1v-0.8c0-0.1,0-0.1,0-0.2
		l2.7-30.5c0.1-0.7,0.5-1.3,1.1-1.7L13.9,50L8,43.1c-0.7-0.8-0.7-2,0-2.7l18.4-21c0.4-0.5,1.1-0.8,1.8-0.7l6.5,0.6l2.7-6.6
		c0.2-0.5,0.7-1,1.2-1.2L66.9,1c0.8-0.3,1.7-0.1,2.3,0.6l7,8.2l5-8.7c0.4-0.7,1.1-1.1,1.9-1l26.7,1.6c0.5,0,1,0.2,1.4,0.6l5.8,5.8
		l7.1-0.7c0.5-0.1,1.1,0.1,1.5,0.4l21.9,17c0.5,0.4,0.8,1,0.8,1.6v8.4l6.1,2.7c0.4,0.2,0.8,0.5,1,1l12.1,23.4
		c0.4,0.8,0.3,1.7-0.3,2.3l-8.2,9.5l10.2,6.8c0.8,0.5,1.1,1.5,0.8,2.3l-10.6,35.5C159.1,119.2,158.3,119.8,157.3,119.8z M69.1,115.6
		h86.7l9.7-32.6l-10.9-7.3c-0.5-0.3-0.8-0.9-0.9-1.5c-0.1-0.6,0.1-1.2,0.5-1.6l8.8-10.2l-11.1-21.5l-6.6-2.9
		c-0.8-0.3-1.2-1.1-1.2-1.9v-8.7l-20.4-15.9l-7.2,0.7c-0.6,0.1-1.2-0.2-1.7-0.6l-5.9-5.9L84.2,4.3l-5.8,10.2c-0.3,0.6-0.9,1-1.6,1
		c-0.7,0.1-1.3-0.2-1.8-0.7L67,5.4L40.9,15L38,22.2c-0.3,0.9-1.2,1.4-2.1,1.3l-7-0.6L12.4,41.7l6.4,7.5c0.4,0.5,0.6,1.1,0.5,1.7
		c-0.1,0.6-0.5,1.2-1.1,1.5L6.8,58.6L4.3,86.8l52.6,7c0.7,0.1,1.3,0.5,1.6,1.1L69.1,115.6z"/>
</g>
<polyline class="st2" points="63.6,23.3 70.5,41.5 38.9,73.1 38.9,73.1 25.6,72.7 "/>
<line class="st2" x1="36.1" y1="46" x2="54.3" y2="57.7"/>
<line class="st2" x1="68.8" y1="73.1" x2="60.7" y2="52.9"/>
<line class="st2" x1="100" y1="50" x2="81.8" y2="72.2"/>
<polyline class="st2" points="117.4,73.1 68.8,73.1 54.3,94.1 "/>
<line class="st2" x1="142.8" y1="93.7" x2="130.3" y2="89.3"/>
<polyline class="st2" points="142.8,59.7 135.6,62.2 135.9,78.7 123.8,99.7 76.9,98.6 "/>
<line class="st2" x1="121.8" y1="54.9" x2="135.6" y2="62.2"/>
<polyline class="st2" points="88.7,32.2 94.7,23.7 128.3,38.7 "/>
</svg>
