<?xml version="1.0" encoding="utf-8"?>
<!-- Generator: Adobe Illustrator 23.0.4, SVG Export Plug-In . SVG Version: 6.00 Build 0)  -->
<svg version="1.1" xmlns="http://www.w3.org/2000/svg" xmlns:xlink="http://www.w3.org/1999/xlink" x="0px" y="0px"
	 viewBox="0 0 15 15" style="enable-background:new 0 0 15 15;" xml:space="preserve">
<style type="text/css">
	.st0{display:none;}
	.st1{display:inline;fill:#DA112A;}
	.st2{display:inline;fill-rule:evenodd;clip-rule:evenodd;fill:#DA112A;}
	.st3{display:inline;}
	.st4{fill:none;}
	.st5{fill:#FFFFFF;}
	.st6{fill:#DA112A;}
</style>
<g id="Layer_1" class="st0">
	<g>
		<path class="st1" d="M7.1,3.7h2c0.3,0,0.5-0.2,0.5-0.5V1c0-0.3-0.2-0.5-0.5-0.5h-2C6.8,0.5,6.6,0.7,6.6,1v2.2
			C6.6,3.5,6.8,3.7,7.1,3.7z"/>
		<path class="st2" d="M11.6,14.4H4.5c-0.3,0-0.5-0.3-0.5-0.5v-1.5c0-0.3,0.2-0.5,0.5-0.5h1.9c0.3,0,0.5-0.3,0.5-0.5V8.1
			c0-0.3-0.2-0.5-0.5-0.5H4.5C4.2,7.5,4,7.3,4,7V5.5C4,5.2,4.2,5,4.5,5h4.2C9,5,9.2,5.3,9.2,5.5v5.8c0,0.3,0.2,0.5,0.5,0.5h1.9
			c0.3,0,0.5,0.3,0.5,0.5v1.5C12,14.1,11.8,14.4,11.6,14.4"/>
	</g>
	<g class="st3">
		<rect x="9.7" y="9.4" class="st4" width="3" height="3"/>
		<path class="st5" d="M9.6,4.1c0.3,0.3,0.9,0.3,1.3,0c0.2-0.2,0.2-0.4,0.3-0.6h0.4c0.6,0,1,0.5,1,1v1c0,0.5,0.4,0.9,0.9,0.9
			c0.5,0,0.9-0.4,0.9-0.9v-1c0-1.5-1.3-2.8-2.8-2.8h-0.4c0-0.2-0.1-0.4-0.2-0.6c-0.3-0.3-0.9-0.3-1.3,0L8.7,2
			C8.6,2.1,8.5,2.3,8.5,2.6c0,0.2,0.1,0.5,0.2,0.6L9.6,4.1z M8.9,2.1l0.8-0.8c0.2-0.2,0.7-0.2,0.9,0c0.1,0.1,0.2,0.3,0.2,0.4
			c0,0.1,0,0.1,0,0.2h0.6c1.4,0,2.5,1.1,2.6,2.5v1c0,0.4-0.3,0.6-0.6,0.6s-0.6-0.3-0.6-0.6v-1c0-0.7-0.6-1.3-1.3-1.3h-0.6
			c0.1,0.2,0,0.5-0.2,0.7c-0.3,0.2-0.7,0.2-0.9,0L8.9,3C8.8,2.9,8.7,2.8,8.7,2.6C8.7,2.4,8.8,2.3,8.9,2.1z"/>
		<path class="st5" d="M9.8,3.9c0.2,0.2,0.6,0.2,0.9,0c0.2-0.2,0.2-0.4,0.2-0.7h0.6c0.7,0,1.3,0.6,1.3,1.3v1c0,0.4,0.3,0.6,0.6,0.6
			S14,5.8,14,5.5v-1c0-1.4-1.2-2.5-2.6-2.5h-0.6c0-0.1,0-0.1,0-0.2c0-0.2-0.1-0.3-0.2-0.4c-0.2-0.2-0.7-0.2-0.9,0L8.9,2.1
			C8.8,2.3,8.7,2.4,8.7,2.6c0,0.2,0.1,0.3,0.2,0.4L9.8,3.9z M9.1,2.3l0.8-0.8c0.2-0.1,0.4-0.1,0.5,0c0.1,0.1,0.1,0.2,0.1,0.3
			c0,0,0,0.1,0,0.1l-0.1,0.3h1c1.3,0,2.3,1,2.3,2.3v1c0,0.2-0.2,0.4-0.4,0.4S13,5.7,13,5.5v-1C13,3.6,12.3,3,11.5,3h-1l0.1,0.3
			c0,0.1,0,0.3-0.1,0.4c-0.2,0.2-0.4,0.2-0.6,0L9.1,2.8C9,2.8,9,2.7,9,2.6C9,2.5,9,2.4,9.1,2.3z"/>
		<path class="st5" d="M14.7,7.9c0-0.3-0.3-0.6-0.6-0.6H8.2c-0.3,0-0.6,0.3-0.6,0.6v5.9c0,0.3,0.3,0.6,0.6,0.6h5.9
			c0.3,0,0.6-0.3,0.6-0.6L14.7,7.9z M14.5,13.8c0,0.2-0.2,0.4-0.4,0.4H8.2c-0.2,0-0.4-0.2-0.4-0.4V7.9c0-0.2,0.2-0.4,0.4-0.4h5.9
			c0.2,0,0.4,0.2,0.4,0.4V13.8z"/>
		<path class="st5" d="M12.9,12.6V9.1H9.4v3.5H12.9L12.9,12.6z M12.6,12.3h-3v-3h3V12.3z"/>
		<path class="st5" d="M14.1,7.5H8.2C8,7.5,7.8,7.7,7.8,7.9v5.9c0,0.2,0.2,0.4,0.4,0.4h5.9c0.2,0,0.4-0.2,0.4-0.4V7.9
			C14.4,7.7,14.3,7.5,14.1,7.5z M14.2,13.8c0,0.1-0.1,0.1-0.1,0.1H8.2c-0.1,0-0.1-0.1-0.1-0.1V7.9c0-0.1,0.1-0.1,0.1-0.1h5.9
			c0.1,0,0.1,0.1,0.1,0.1V13.8z"/>
		<path class="st5" d="M9.2,12.8h4v-4h-4V12.8z M9.4,9.1h3.5v3.5h0H9.4V9.1z"/>
		<path class="st5" d="M5.9,10.7c-0.3-0.3-0.9-0.3-1.3,0c-0.1,0.1-0.2,0.3-0.2,0.6H4c-0.6,0-1-0.5-1-1v-1c0-0.5-0.4-0.9-0.9-0.9
			c-0.5,0-0.9,0.4-0.9,0.9v1c0,1.5,1.3,2.8,2.8,2.8h0.4c0,0.2,0.1,0.4,0.2,0.6c0.2,0.2,0.4,0.2,0.6,0.2c0.2,0,0.5-0.1,0.6-0.2
			l0.8-0.8C6.9,12.7,7,12.5,7,12.3c0-0.2-0.1-0.5-0.3-0.7L5.9,10.7z M6.5,12.6l-0.8,0.8c-0.1,0.1-0.3,0.2-0.4,0.2
			c-0.2,0-0.3-0.1-0.4-0.2c-0.1-0.1-0.2-0.3-0.2-0.4c0-0.1,0-0.1,0-0.2H4c-1.4,0-2.6-1.2-2.6-2.6v-1c0-0.4,0.3-0.6,0.6-0.6
			s0.6,0.3,0.6,0.6v1c0,0.7,0.6,1.3,1.3,1.3h0.6c0-0.1,0-0.1,0-0.2c0-0.2,0.1-0.3,0.2-0.4c0.2-0.2,0.7-0.2,0.9,0l0.9,0.9
			c0.1,0.1,0.2,0.3,0.2,0.5C6.7,12.4,6.7,12.6,6.5,12.6z"/>
		<path class="st5" d="M5.7,10.9c-0.2-0.2-0.7-0.2-0.9,0c-0.1,0.1-0.2,0.3-0.2,0.4c0,0.1,0,0.1,0,0.2H4c-0.7,0-1.3-0.6-1.3-1.3v-1
			c0-0.4-0.3-0.6-0.6-0.6S1.5,8.9,1.5,9.3v1c0,1.4,1.1,2.6,2.6,2.6h0.6c0,0.1,0,0.1,0,0.2c0,0.2,0.1,0.3,0.2,0.4
			c0.1,0.1,0.3,0.2,0.4,0.2c0.2,0,0.3-0.1,0.4-0.2l0.8-0.8c0.1-0.1,0.2-0.2,0.2-0.4c0-0.2-0.1-0.4-0.2-0.5L5.7,10.9z M6.4,12.5
			l-0.8,0.8c-0.1,0.1-0.3,0.2-0.5,0c-0.1-0.1-0.1-0.2-0.1-0.3c0,0,0-0.1,0-0.1L5,12.6H4c-1.3,0-2.3-1-2.3-2.3v-1
			c0-0.2,0.2-0.4,0.4-0.4c0.2,0,0.4,0.2,0.4,0.4v1c0,0.8,0.7,1.5,1.5,1.5h0.6l0.3,0l-0.1-0.3c0,0,0-0.1,0-0.1c0-0.1,0-0.2,0.1-0.3
			c0.1-0.1,0.4-0.1,0.6,0l0.9,0.8c0.1,0.1,0.1,0.2,0.1,0.3C6.5,12.3,6.5,12.4,6.4,12.5z"/>
		<path class="st5" d="M2.2,2.9c0.2,0,0.5-0.1,0.7-0.3c0.2-0.2,0.3-0.5,0.3-0.7c0-0.2-0.1-0.5-0.3-0.7c-0.2-0.4-0.9-0.5-1.5,0
			C1.3,1.3,1.1,1.5,1.1,1.8c0,0.3,0.1,0.6,0.3,0.8C1.7,2.8,1.9,2.9,2.2,2.9z M1.6,1.3C1.8,1.1,2,1,2.2,1c0.2,0,0.4,0.1,0.5,0.2
			C2.9,1.4,3,1.6,3,1.8C3,2,2.9,2.2,2.7,2.4C2.6,2.5,2.4,2.6,2.2,2.6C2,2.6,1.8,2.5,1.6,2.4C1.5,2.3,1.4,2,1.4,1.8
			C1.4,1.6,1.5,1.4,1.6,1.3z"/>
		<path class="st5" d="M2.2,2.6c0.2,0,0.4-0.1,0.5-0.2C2.9,2.2,3,2,3,1.8c0-0.2-0.1-0.4-0.2-0.5C2.6,1.1,2.4,1,2.2,1
			C2,1,1.8,1.1,1.6,1.3C1.5,1.4,1.4,1.6,1.4,1.8c0,0.2,0.1,0.4,0.2,0.6C1.8,2.5,2,2.6,2.2,2.6z M1.8,1.5c0.1-0.1,0.3-0.2,0.4-0.2
			c0.2,0,0.3,0,0.4,0.1c0.1,0.1,0.2,0.3,0.2,0.4c0,0.2-0.1,0.3-0.1,0.4C2.3,2.4,2,2.4,1.8,2.2C1.7,2.1,1.6,2,1.6,1.8
			C1.6,1.7,1.7,1.6,1.8,1.5z"/>
		<path class="st5" d="M4.3,2.8c0.6,0,1-0.5,1-1c0-0.6-0.5-1-1-1s-1,0.5-1,1C3.3,2.4,3.8,2.8,4.3,2.8z M4.3,1c0.4,0,0.8,0.3,0.8,0.8
			c0,0.4-0.3,0.8-0.8,0.8c-0.4,0-0.8-0.3-0.8-0.8C3.5,1.4,3.9,1,4.3,1z"/>
		<path class="st5" d="M4.3,2.6c0.4,0,0.8-0.3,0.8-0.8C5.1,1.4,4.8,1,4.3,1C3.9,1,3.5,1.4,3.5,1.8C3.5,2.3,3.9,2.6,4.3,2.6z
			 M4.3,1.3c0.3,0,0.5,0.2,0.5,0.5c0,0.3-0.2,0.5-0.5,0.5C4,2.3,3.8,2.1,3.8,1.8C3.8,1.5,4,1.3,4.3,1.3z"/>
		<path class="st5" d="M5.7,1L5.7,1C5.5,1.3,5.4,1.5,5.4,1.8c0,0.2,0.1,0.5,0.3,0.7c0.2,0.2,0.5,0.3,0.7,0.3c0.2,0,0.5-0.1,0.7-0.3
			c0.2-0.2,0.3-0.5,0.3-0.7c0-0.2-0.1-0.5-0.3-0.7C6.8,0.7,6.2,0.7,5.7,1z M7,2.4C6.9,2.5,6.7,2.6,6.5,2.6c-0.2,0-0.4-0.1-0.6-0.2
			C5.8,2.2,5.7,2,5.7,1.8c0-0.2,0.1-0.4,0.2-0.6C6.3,0.9,6.7,1,7,1.2c0.1,0.2,0.2,0.4,0.2,0.6C7.3,2,7.2,2.2,7,2.4z"/>
		<path class="st5" d="M5.9,1.2C5.7,1.4,5.7,1.6,5.7,1.8c0,0.2,0.1,0.4,0.2,0.6c0.2,0.2,0.4,0.2,0.6,0.2c0.2,0,0.4-0.1,0.6-0.2
			C7.2,2.2,7.3,2,7.3,1.8c0-0.2-0.1-0.4-0.2-0.6C6.7,1,6.3,0.9,5.9,1.2z M6.9,2.2c-0.3,0.3-0.6,0.2-0.8,0C6,2.1,5.9,1.9,5.9,1.8
			c0-0.2,0-0.3,0.2-0.4c0.3-0.2,0.6-0.2,0.8,0C7,1.5,7,1.7,7,1.8C7,2,7,2.1,6.9,2.2z"/>
		<path class="st5" d="M6.5,5c0.6,0,1-0.5,1-1c0-0.6-0.5-1-1-1s-1,0.5-1,1C5.4,4.5,5.9,5,6.5,5z M6.5,3.2c0.4,0,0.8,0.3,0.8,0.8
			c0,0.4-0.3,0.8-0.8,0.8C6,4.7,5.7,4.4,5.7,4C5.7,3.5,6,3.2,6.5,3.2z"/>
		<path class="st5" d="M6.5,4.7c0.4,0,0.8-0.3,0.8-0.8c0-0.4-0.3-0.8-0.8-0.8C6,3.2,5.7,3.5,5.7,4C5.7,4.4,6,4.7,6.5,4.7z M6.5,3.4
			C6.8,3.4,7,3.7,7,4c0,0.3-0.2,0.5-0.5,0.5S5.9,4.3,5.9,4C5.9,3.7,6.2,3.4,6.5,3.4z"/>
		<path class="st5" d="M7.2,5.3C6.7,5,6.2,4.9,5.7,5.3C5.5,5.5,5.4,5.8,5.4,6.1c0,0.3,0.1,0.5,0.3,0.7C5.9,7,6.2,7.1,6.5,7.1
			C6.7,7.1,7,7,7.2,6.8c0.2-0.2,0.3-0.5,0.3-0.7C7.5,5.8,7.4,5.5,7.2,5.3L7.2,5.3z M7,6.6C6.9,6.8,6.7,6.9,6.5,6.9
			c-0.2,0-0.4-0.1-0.6-0.2C5.8,6.5,5.7,6.3,5.7,6.1c0-0.2,0.1-0.4,0.2-0.6c0.2-0.1,0.4-0.2,0.6-0.2c0.2,0,0.4,0.1,0.5,0.2l0,0
			c0.2,0.2,0.2,0.4,0.2,0.5C7.3,6.3,7.2,6.5,7,6.6z"/>
		<path class="st5" d="M7,5.5C6.8,5.4,6.6,5.3,6.5,5.3c-0.2,0-0.4,0.1-0.6,0.2C5.7,5.7,5.7,5.9,5.7,6.1c0,0.2,0.1,0.4,0.2,0.5
			c0.2,0.2,0.4,0.2,0.6,0.2c0.2,0,0.4-0.1,0.6-0.2c0.2-0.2,0.2-0.4,0.2-0.6C7.3,5.9,7.2,5.7,7,5.5L7,5.5z M6.9,6.4
			c-0.3,0.3-0.6,0.2-0.8,0C6,6.3,5.9,6.2,5.9,6.1c0-0.2,0.1-0.3,0.1-0.4c0.1-0.1,0.3-0.2,0.4-0.2c0.1,0,0.3,0.1,0.4,0.2l0,0
			C7,5.8,7,6,7,6.1C7,6.2,7,6.4,6.9,6.4z"/>
		<path class="st5" d="M4.3,7.1c0.6,0,1-0.5,1-1c0-0.6-0.5-1-1-1s-1,0.5-1,1C3.3,6.6,3.8,7.1,4.3,7.1z M4.3,5.3
			c0.4,0,0.8,0.3,0.8,0.8c0,0.4-0.3,0.8-0.8,0.8c-0.4,0-0.8-0.3-0.8-0.8C3.5,5.6,3.9,5.3,4.3,5.3z"/>
		<path class="st5" d="M4.3,6.9c0.4,0,0.8-0.3,0.8-0.8c0-0.4-0.3-0.8-0.8-0.8c-0.4,0-0.8,0.3-0.8,0.8C3.5,6.5,3.9,6.9,4.3,6.9z
			 M4.3,5.5c0.3,0,0.5,0.2,0.5,0.5c0,0.3-0.2,0.5-0.5,0.5C4,6.6,3.8,6.4,3.8,6.1C3.8,5.8,4,5.5,4.3,5.5z"/>
		<path class="st5" d="M2.2,7.1c0.3,0,0.6-0.1,0.7-0.3c0.2-0.2,0.3-0.5,0.3-0.7c0-0.3-0.1-0.5-0.3-0.7c-0.3-0.3-1-0.4-1.5,0
			C1.3,5.5,1.2,5.8,1.2,6.1c0,0.3,0.1,0.5,0.3,0.8C1.7,7,1.9,7.1,2.2,7.1z M1.6,5.5C1.8,5.4,2,5.3,2.2,5.3c0.2,0,0.4,0.1,0.5,0.2
			C2.9,5.7,3,5.9,3,6.1c0,0.2-0.1,0.4-0.2,0.6C2.6,6.8,2.4,6.9,2.2,6.9C2,6.9,1.8,6.8,1.6,6.7C1.5,6.5,1.4,6.3,1.4,6.1
			C1.4,5.9,1.5,5.7,1.6,5.5z"/>
		<path class="st5" d="M2.2,6.9c0.2,0,0.4-0.1,0.5-0.2C2.9,6.5,3,6.3,3,6.1c0-0.2-0.1-0.4-0.2-0.6C2.6,5.4,2.4,5.3,2.2,5.3
			C2,5.3,1.8,5.4,1.6,5.5C1.5,5.7,1.4,5.9,1.4,6.1c0,0.2,0.1,0.4,0.2,0.6C1.8,6.8,2,6.9,2.2,6.9z M1.8,5.7c0.1-0.1,0.3-0.2,0.4-0.2
			c0.1,0,0.3,0,0.4,0.1c0.1,0.1,0.2,0.2,0.2,0.4c0,0.2-0.1,0.3-0.2,0.4C2.4,6.6,2,6.6,1.8,6.5C1.8,6.4,1.7,6.3,1.7,6.1
			C1.7,5.9,1.7,5.8,1.8,5.7z"/>
		<path class="st5" d="M2.2,2.9c-0.6,0-1,0.5-1,1c0,0.6,0.5,1,1,1c0.6,0,1-0.5,1-1C3.2,3.4,2.8,2.9,2.2,2.9z M2.2,4.7
			c-0.4,0-0.8-0.3-0.8-0.8c0-0.4,0.3-0.8,0.8-0.8C2.6,3.2,3,3.5,3,3.9C3,4.4,2.6,4.7,2.2,4.7z"/>
		<path class="st5" d="M2.2,3.2c-0.4,0-0.8,0.3-0.8,0.8c0,0.4,0.3,0.8,0.8,0.8C2.6,4.7,3,4.4,3,3.9C3,3.5,2.6,3.2,2.2,3.2z M2.2,4.5
			c-0.3,0-0.5-0.2-0.5-0.5s0.2-0.5,0.5-0.5s0.5,0.2,0.5,0.5S2.5,4.5,2.2,4.5z"/>
	</g>
</g>
<g id="Layer_2">
	<path class="st6" d="M9.4,3.6c0.2,0.2,0.4,0.2,0.6,0c0.1-0.1,0.1-0.3,0.1-0.4L10,2.9h1c0.8,0,1.5,0.7,1.5,1.5v1
		c0,0.2,0.2,0.4,0.4,0.4s0.4-0.2,0.4-0.4v-1c0-1.3-1.1-2.3-2.3-2.3h-1l0.1-0.3c0,0,0-0.1,0-0.1c0-0.1,0-0.2-0.1-0.3
		c-0.1-0.1-0.4-0.1-0.6,0L8.6,2.2C8.5,2.3,8.5,2.4,8.5,2.5c0,0.1,0,0.2,0.1,0.3L9.4,3.6z"/>
	<path class="st6" d="M13.6,7.7H7.7c-0.1,0-0.1,0-0.1,0.1v5.9c0,0.1,0.1,0.1,0.1,0.1h5.9c0.1,0,0.1,0,0.1-0.1V7.8
		C13.7,7.8,13.7,7.7,13.6,7.7z M12.7,12.8h-4v-4h4V12.8z"/>
	<path class="st6" d="M5,11.1c-0.2-0.1-0.4-0.1-0.6,0c-0.1,0.1-0.1,0.2-0.1,0.3c0,0,0,0.1,0,0.1l0.1,0.3l-0.3,0H3.5
		c-0.8,0-1.5-0.7-1.5-1.5v-1c0-0.2-0.2-0.4-0.4-0.4C1.3,8.9,1.2,9,1.2,9.3v1c0,1.3,1,2.3,2.3,2.3h1l-0.1,0.3c0,0,0,0.1,0,0.1
		c0,0.1,0,0.2,0.1,0.3c0.2,0.2,0.4,0.1,0.5,0l0.8-0.8C5.9,12.4,6,12.3,6,12.2c0-0.1,0-0.2-0.1-0.3L5,11.1z"/>
	<path class="st6" d="M2,2.1C2.1,2,2.1,1.9,2.1,1.7c0-0.1-0.1-0.3-0.2-0.4C1.9,1.2,1.8,1.2,1.6,1.2c-0.1,0-0.3,0.1-0.4,0.2
		C1.1,1.4,1.1,1.6,1.1,1.7c0,0.1,0.1,0.3,0.2,0.4C1.4,2.3,1.7,2.3,2,2.1z"/>
	<path class="st6" d="M3.8,2.2c0.3,0,0.5-0.2,0.5-0.5c0-0.3-0.2-0.5-0.5-0.5S3.2,1.4,3.2,1.7C3.2,2,3.5,2.2,3.8,2.2z"/>
	<path class="st6" d="M5.5,1.3C5.4,1.4,5.4,1.5,5.4,1.7c0,0.1,0.1,0.3,0.2,0.4c0.2,0.2,0.5,0.2,0.8,0C6.4,2,6.5,1.9,6.5,1.7
		c0-0.1-0.1-0.3-0.2-0.4C6.1,1.1,5.8,1.1,5.5,1.3z"/>
	<path class="st6" d="M5.9,4.4c0.3,0,0.5-0.2,0.5-0.5c0-0.3-0.2-0.5-0.5-0.5S5.4,3.6,5.4,3.9C5.4,4.2,5.6,4.4,5.9,4.4z"/>
	<path class="st6" d="M6.3,5.6C6.2,5.5,6.1,5.5,5.9,5.5c-0.1,0-0.3,0.1-0.4,0.2C5.4,5.7,5.4,5.9,5.4,6c0,0.1,0.1,0.3,0.2,0.4
		c0.2,0.2,0.5,0.2,0.8,0C6.4,6.3,6.5,6.2,6.5,6C6.5,5.9,6.4,5.8,6.3,5.6L6.3,5.6z"/>
	<path class="st6" d="M3.8,6.5c0.3,0,0.5-0.2,0.5-0.5c0-0.3-0.2-0.5-0.5-0.5S3.2,5.7,3.2,6C3.2,6.3,3.5,6.5,3.8,6.5z"/>
	<path class="st6" d="M2,6.4C2.1,6.3,2.2,6.2,2.2,6c0-0.2-0.1-0.3-0.2-0.4C1.9,5.5,1.7,5.5,1.6,5.5c-0.1,0-0.3,0.1-0.4,0.2
		C1.1,5.7,1.1,5.9,1.1,6c0,0.2,0.1,0.3,0.2,0.4C1.4,6.6,1.8,6.6,2,6.4z"/>
	<path class="st6" d="M1.6,3.3c-0.3,0-0.5,0.2-0.5,0.5s0.2,0.5,0.5,0.5s0.5-0.2,0.5-0.5S1.9,3.3,1.6,3.3z"/>
</g>
</svg>
