<?xml version="1.0" encoding="utf-8"?>
<!-- Generator: Adobe Illustrator 23.0.6, SVG Export Plug-In . SVG Version: 6.00 Build 0)  -->
<svg version="1.1" id="Layer_1" xmlns="http://www.w3.org/2000/svg" xmlns:xlink="http://www.w3.org/1999/xlink" x="0px" y="0px"
	 viewBox="0 0 100 100" style="enable-background:new 0 0 100 100;" xml:space="preserve">
<style type="text/css">
	.st0{fill:#DA1F2B;}
	.st1{fill:#182021;}
	.st2{display:none;opacity:0.6;fill:#5EC9D1;}
	.st3{display:none;fill:#182021;}
</style>
<circle class="st0" cx="50.3" cy="60" r="35.2"/>
<path class="st0" d="M61.9,20.1H38.8c-2,0-3.7-1.7-3.7-3.7v-4.8c0-2,1.7-3.7,3.7-3.7h23.1c2,0,3.7,1.7,3.7,3.7v4.8
	C65.5,18.5,63.9,20.1,61.9,20.1z"/>
<path id="hand_1_" class="st1" d="M53.4,37.1l2,20.7c0.2,2.8-1.9,5.2-4.7,5.4c-2.8,0.2-5.2-1.9-5.4-4.7c0-0.3,0-0.6,0-0.8l2.2-20.6
	c0.1-1.6,1.7-2.8,3.3-2.7C52.2,34.5,53.3,35.7,53.4,37.1z"/>
<circle class="st2" cx="50.3" cy="58.2" r="5.1"/>
<rect x="45.1" y="34.4" class="st3" width="5.2" height="23.8"/>
</svg>
