<?xml version="1.0" encoding="utf-8"?>
<!-- Generator: Adobe Illustrator 24.0.1, SVG Export Plug-In . SVG Version: 6.00 Build 0)  -->
<svg version="1.1" id="Layer_1" xmlns="http://www.w3.org/2000/svg" xmlns:xlink="http://www.w3.org/1999/xlink" x="0px" y="0px"
	 viewBox="0 0 15 15" style="enable-background:new 0 0 15 15;" xml:space="preserve">
<style type="text/css">
	.st0{fill-rule:evenodd;clip-rule:evenodd;fill:#DA112A;}
</style>
<path class="st0" d="M14,5.8h-1.4c-0.3,0-0.4-0.1-0.5-0.4c-0.1-0.3,0-0.4,0.1-0.6l1-1c0.1-0.1,0.3-0.4,0.3-0.5
	c0-0.3-0.1-0.4-0.3-0.5L12,1.6c-0.3-0.3-0.8-0.3-1.1,0L10,2.7C9.8,2.8,9.6,2.8,9.6,2.8c-0.3,0-0.4-0.1-0.4-0.1C9.1,2.6,9,2.5,9,2.3
	V0.9c0-0.4-0.4-0.8-0.8-0.8H6.5c-0.4,0-0.8,0.3-0.8,0.8v1.4c0,0.4-0.3,0.5-0.5,0.5c-0.1,0-0.3,0-0.4-0.1l-1-1c-0.3-0.3-0.8-0.3-1,0
	L1.6,3C1.5,3.1,1.3,3.2,1.3,3.5c0,0.3,0.1,0.4,0.3,0.5l1,1c0.1,0.1,0.3,0.4,0.1,0.6C2.6,5.7,2.3,5.8,2.2,5.8H0.8
	c-0.4,0-0.8,0.4-0.8,0.8v1.8c0,0.4,0.4,0.8,0.8,0.8h1.4c0.3,0,0.4,0.1,0.5,0.4c0.1,0.3,0,0.4-0.1,0.6l-1,1c-0.1,0.1-0.3,0.4-0.3,0.5
	c0,0.3,0.1,0.4,0.3,0.5l1.3,1.3c0.3,0.3,0.8,0.3,1.1,0l1-1c0.1-0.1,0.3-0.1,0.4-0.1c0.3,0,0.5,0.3,0.5,0.5v1.4
	c0,0.4,0.4,0.8,0.8,0.8h1.8c0.4,0,0.8-0.4,0.8-0.8v-1.4c0-0.4,0.3-0.5,0.5-0.5c0.1,0,0.3,0,0.4,0.1l1,1c0.3,0.3,0.8,0.3,1.1,0
	l1.3-1.3c0.1-0.1,0.3-0.4,0.3-0.5c0-0.3-0.1-0.4-0.3-0.5l-1-1c-0.1-0.1-0.3-0.4-0.1-0.6c0.1-0.3,0.3-0.4,0.5-0.4h1.4
	c0.4,0,0.8-0.4,0.8-0.8V6.6C14.8,6.2,14.4,5.8,14,5.8 M10,7.5c0,1.4-1.2,2.6-2.6,2.6S4.8,9,4.8,7.5c0-1.6,1.2-2.6,2.6-2.6
	C8.7,4.9,10,6.1,10,7.5"/>
</svg>
