<?xml version="1.0" encoding="utf-8"?>
<!-- Generator: Adobe Illustrator 24.0.1, SVG Export Plug-In . SVG Version: 6.00 Build 0)  -->
<svg version="1.1" id="Layer_1" xmlns="http://www.w3.org/2000/svg" xmlns:xlink="http://www.w3.org/1999/xlink" x="0px" y="0px"
	 viewBox="0 0 492 492" style="enable-background:new 0 0 492 492;" xml:space="preserve">
<style type="text/css">
	.st0{fill:none;}
	.st1{display:none;fill:#2B2929;}
	.st2{font-family:'ShareTech-Regular';}
	.st3{font-size:592.4519px;}
	.st4{letter-spacing:-59;}
	.st5{fill:#FFFFFF;}
</style>
<rect x="-33.9" y="41.5" class="st0" width="579.5" height="478.6"/>
<text transform="matrix(1 0 0 1 7.0513 456.1787)" class="st1 st2 st3 st4">21</text>
<g>
	<path class="st5" d="M44.4,404L133.2,269c13-19.7,21.7-33.5,26.1-41.2c4.3-7.7,7.3-15.3,8.9-22.8c1.6-7.5,2.4-18.4,2.4-32.6v-41.5
		c0-12.2-4.5-22.7-13.6-31.4c-9.1-8.7-20.9-13-35.5-13H56.2v-45h59.2c34.4,0,60.7,8.4,79.1,25.2c18.4,16.8,27.5,42,27.5,75.5v24.9
		c0,19.8-1,34.8-3,45c-2,10.3-5.4,19.9-10.4,29c-4.9,9.1-14.5,24.5-28.7,46.2L98.3,411.2H234v45H44.4V404z"/>
	<path class="st5" d="M280.8,456.2v-44.4h71.7V88.3l-77.6,30.8v-48l71.7-29.6h56.3v370.3h58.7v44.4H280.8z"/>
</g>
</svg>
