<?xml version="1.0" encoding="utf-8"?>
<!-- Generator: Adobe Illustrator 23.0.4, SVG Export Plug-In . SVG Version: 6.00 Build 0)  -->
<svg version="1.1" id="Layer_1" xmlns="http://www.w3.org/2000/svg" xmlns:xlink="http://www.w3.org/1999/xlink" x="0px" y="0px"
	 viewBox="0 0 15 15" style="enable-background:new 0 0 15 15;" xml:space="preserve">
<style type="text/css">
	.st0{fill-rule:evenodd;clip-rule:evenodd;fill:#9EC421;}
</style>
<path class="st0" d="M10.8,1.9H9.4c-1.2,0-2.2,1-2.2,2.2v2.2H2.4C2.1,6.4,1.9,6.7,1.9,7v5.6c0,0.3,0.3,0.6,0.6,0.6h6.4
	c0.3,0,0.6-0.3,0.6-0.6V7c0-0.3-0.3-0.6-0.6-0.6H8.6V4.2c0-0.4,0.3-0.7,0.7-0.7h1.5c0.4,0,0.7,0.3,0.7,0.7v2.2h1.5V4.2
	C13.1,2.9,12.1,1.9,10.8,1.9z M6.4,11.6H4.9L5.2,10C5,9.9,4.9,9.7,4.9,9.4c0-0.4,0.3-0.7,0.7-0.7S6.4,9,6.4,9.4
	C6.4,9.7,6.2,9.9,6,10L6.4,11.6z"/>
</svg>
