<?xml version="1.0" encoding="utf-8"?>
<!-- Generator: Adobe Illustrator 24.0.0, SVG Export Plug-In . SVG Version: 6.00 Build 0)  -->
<svg version="1.1" id="Layer_1" xmlns="http://www.w3.org/2000/svg" xmlns:xlink="http://www.w3.org/1999/xlink" x="0px" y="0px"
	 viewBox="0 0 15 15" style="enable-background:new 0 0 15 15;" xml:space="preserve">
<style type="text/css">
	.st0{fill:#9EC421;}
</style>
<g>
	<path class="st0" d="M8.3,6.3H4.2C3.9,6.4,3.7,6.7,3.7,7v5.6c0,0.3,0.3,0.6,0.6,0.6h6.4c0.3,0,0.6-0.3,0.6-0.6V6.8
		c0-0.3-0.3-0.5-0.6-0.5h-0.3H9H8.3z M8.2,11.6H6.7L7,10C6.8,9.9,6.7,9.7,6.7,9.4C6.7,9,7,8.7,7.4,8.7c0.4,0,0.8,0.3,0.8,0.7
		C8.2,9.7,8,9.9,7.8,10L8.2,11.6z"/>
	<path class="st0" d="M8.3,1.9H6.9c-1.2,0-2.2,1-2.2,2.2v1.6v0.6h1.4V5.7V4.2c0-0.4,0.3-0.7,0.7-0.7h1.5C8.7,3.5,9,3.8,9,4.2v2.1
		l1.5,0V4.2C10.6,2.9,9.6,1.9,8.3,1.9z"/>
</g>
</svg>
