<?xml version="1.0" encoding="utf-8"?>
<!-- Generator: Adobe Illustrator 24.0.1, SVG Export Plug-In . SVG Version: 6.00 Build 0)  -->
<svg version="1.1" id="Layer_1" xmlns="http://www.w3.org/2000/svg" xmlns:xlink="http://www.w3.org/1999/xlink" x="0px" y="0px"
	 viewBox="0 0 15 15" style="enable-background:new 0 0 15 15;" xml:space="preserve">
<style type="text/css">
	.st0{fill-rule:evenodd;clip-rule:evenodd;fill:#660E1C;}
</style>
<path class="st0" d="M12.8,6.3h-1.1c-0.2,0-0.3-0.1-0.4-0.3c-0.1-0.2,0-0.3,0.1-0.5l0.8-0.8c0.1-0.1,0.2-0.3,0.2-0.4
	c0-0.2-0.1-0.3-0.2-0.4l-1-1c-0.2-0.2-0.6-0.2-0.9,0L9.6,3.8C9.4,3.9,9.3,3.9,9.3,3.9C9.1,3.9,9,3.8,9,3.8C8.9,3.7,8.8,3.6,8.8,3.5
	V2.4c0-0.3-0.3-0.6-0.6-0.6H6.8C6.5,1.8,6.2,2,6.2,2.4v1.1c0,0.3-0.2,0.4-0.4,0.4c-0.1,0-0.2,0-0.3-0.1L4.7,3C4.5,2.8,4.1,2.8,3.9,3
	l-1,1C2.8,4.1,2.7,4.2,2.7,4.4c0,0.2,0.1,0.3,0.2,0.4l0.8,0.8c0.1,0.1,0.2,0.3,0.1,0.5C3.7,6.2,3.5,6.3,3.4,6.3H2.3
	C2,6.3,1.7,6.6,1.7,6.9v1.4c0,0.3,0.3,0.6,0.6,0.6h1.1c0.2,0,0.3,0.1,0.4,0.3s0,0.3-0.1,0.5l-0.8,0.8c-0.1,0.1-0.2,0.3-0.2,0.4
	c0,0.2,0.1,0.3,0.2,0.4l1,1c0.2,0.2,0.6,0.2,0.9,0l0.8-0.8c0.1-0.1,0.2-0.1,0.3-0.1c0.2,0,0.4,0.2,0.4,0.4v1.1
	c0,0.3,0.3,0.6,0.6,0.6h1.4c0.3,0,0.6-0.3,0.6-0.6v-1.1c0-0.3,0.2-0.4,0.4-0.4c0.1,0,0.2,0,0.3,0.1l0.8,0.8c0.2,0.2,0.6,0.2,0.9,0
	l1-1c0.1-0.1,0.2-0.3,0.2-0.4c0-0.2-0.1-0.3-0.2-0.4l-0.8-0.8c-0.1-0.1-0.2-0.3-0.1-0.5s0.2-0.3,0.4-0.3h1.1c0.3,0,0.6-0.3,0.6-0.6
	V6.9C13.4,6.6,13.1,6.3,12.8,6.3 M9,7.6c0,0.8-0.7,1.5-1.5,1.5S6,8.5,6,7.6s0.7-1.5,1.5-1.5S9,6.8,9,7.6"/>
</svg>
