<?xml version="1.0" encoding="utf-8"?>
<!-- Generator: Adobe Illustrator 23.0.4, SVG Export Plug-In . SVG Version: 6.00 Build 0)  -->
<svg version="1.1" id="Layer_1" xmlns="http://www.w3.org/2000/svg" xmlns:xlink="http://www.w3.org/1999/xlink" x="0px" y="0px"
	 viewBox="0 0 15 15" style="enable-background:new 0 0 15 15;" xml:space="preserve">
<style type="text/css">
	.st0{fill:#E81818;}
</style>
<g>
	<path class="st0" d="M3.1,7.4H1.5c-0.2,0-0.3,0.1-0.3,0.3S1.3,8,1.5,8h1.6c0.2,0,0.3-0.1,0.3-0.3S3.3,7.4,3.1,7.4z"/>
	<path class="st0" d="M4.2,4.9C4.3,5,4.5,5,4.6,4.9c0.1-0.1,0.1-0.3,0-0.4L3.5,3.4C3.3,3.3,3.2,3.3,3,3.4c0,0,0,0,0,0
		c-0.1,0.1-0.1,0.3,0,0.4L4.2,4.9z"/>
	<path class="st0" d="M7.5,3.8c0.2,0,0.3-0.1,0.3-0.3V1.9c0-0.2-0.1-0.3-0.3-0.3S7.2,1.8,7.2,1.9v1.6C7.2,3.6,7.4,3.8,7.5,3.8z"/>
	<path class="st0" d="M10.9,4.9L12,3.8c0.1-0.1,0.1-0.3,0-0.4c-0.1-0.1-0.3-0.1-0.4,0l-1.2,1.1c-0.1,0.1-0.1,0.3,0,0.4
		C10.6,5,10.7,5,10.9,4.9z"/>
	<path class="st0" d="M11.7,7.7C11.7,7.9,11.8,8,12,8h1.6c0.2,0,0.3-0.1,0.3-0.3c0-0.2-0.1-0.3-0.3-0.3H12
		C11.8,7.4,11.7,7.6,11.7,7.7z"/>
</g>
<g>
	<path class="st0" d="M6,13.3c0,0.2,0.1,0.3,0.3,0.3h2.6c0.2,0,0.3-0.1,0.3-0.3v-0.4H6V13.3z"/>
</g>
<g>
	<path class="st0" d="M10,5.5c-0.7-0.7-1.7-1-2.6-0.9C6.4,4.6,5.6,5,5,5.6C4.8,5.9,4.5,6.2,4.4,6.5c-0.8,1.6-0.1,3.6,1.5,4.3v1.4
		h3.2v-1.4c1.1-0.6,1.9-1.7,1.9-3C11,7,10.6,6.1,10,5.5z M9.2,7.6L7.8,9.2v1.1c0,0.2-0.1,0.3-0.3,0.3c-0.2,0-0.3-0.1-0.3-0.3V9.1
		L5.9,7.6C5.8,7.4,5.8,7.2,6,7.1c0.1-0.1,0.3-0.1,0.4,0l1.1,1.4l1.2-1.4C8.8,7.1,9,7,9.1,7.2C9.2,7.3,9.3,7.5,9.2,7.6z"/>
</g>
</svg>
