<?xml version="1.0" encoding="utf-8"?>
<!-- Generator: Adobe Illustrator 23.1.1, SVG Export Plug-In . SVG Version: 6.00 Build 0)  -->
<svg version="1.1" id="Layer_1" xmlns="http://www.w3.org/2000/svg" xmlns:xlink="http://www.w3.org/1999/xlink" x="0px" y="0px"
	 viewBox="0 0 15 15" style="enable-background:new 0 0 15 15;" xml:space="preserve">
<style type="text/css">
	.st0{fill:#DA112A;}
</style>
<g>
	<path class="st0" d="M7.8,11.8H5.5c-0.1,0-0.2,0.1-0.2,0.2v2.5c0,0.1,0.1,0.2,0.2,0.2h2.3c0.1,0,0.2-0.1,0.2-0.2V12
		C8,11.9,7.9,11.8,7.8,11.8z"/>
	<path class="st0" d="M10.9,1.2c-0.7-0.6-1.8-0.9-3.5-0.9c-1.9,0-3.2,0.3-3.9,0.8c-0.7,0.6-1,1.6-1,3.2l0,0.5c0,0.1,0,0.1,0.1,0.2
		c0,0,0.1,0.1,0.2,0.1H5c0.1,0,0.1,0,0.2-0.1c0,0,0.1-0.1,0.1-0.2l0-0.5c0-0.6,0.1-1,0.4-1.2C5.8,3,6.2,2.8,7.3,2.8
		C8.4,2.8,8.8,3,9,3.1c0.1,0.1,0.3,0.4,0.3,1.3c0,0.8-0.3,1.4-1,1.6L7.4,6.5c-1,0.4-1.6,0.8-1.9,1.2c-0.2,0.4-0.4,1.2-0.4,2.4
		c0,0.1,0.1,0.2,0.2,0.2h2.3c0.1,0,0.2-0.1,0.2-0.2V9.8c0-0.6,0.4-1.1,1.3-1.5c1.1-0.5,1.7-0.9,2.1-1.4c0.3-0.5,0.5-1.3,0.5-2.5
		C11.9,2.9,11.6,1.8,10.9,1.2z"/>
</g>
</svg>
