<?xml version="1.0" encoding="utf-8"?>
<!-- Generator: Adobe Illustrator 23.0.4, SVG Export Plug-In . SVG Version: 6.00 Build 0)  -->
<svg version="1.1" xmlns="http://www.w3.org/2000/svg" xmlns:xlink="http://www.w3.org/1999/xlink" x="0px" y="0px"
	 viewBox="0 0 15 15" style="enable-background:new 0 0 15 15;" xml:space="preserve">
<style type="text/css">
	.st0{fill:#E81818;}
</style>
<g id="Capa_1">
	<g>
		<path class="st0" d="M13.1,3.5c0.1-0.1,0.1-0.2,0-0.2l-1-1c0,0-0.1,0-0.1,0c0,0-0.1,0-0.1,0L8.1,6l1.2,1.2L13.1,3.5z"/>
		<path class="st0" d="M3.4,2.2c-0.1-0.1-0.2-0.1-0.2,0l-1,1c-0.1,0.1-0.1,0.2,0,0.2L6,7.1l1.2-1.2L3.4,2.2z"/>
		<path class="st0" d="M2.1,12C2,12,2,12.1,2.1,12.2l1,1c0,0,0.1,0,0.1,0s0.1,0,0.1,0l3.9-3.8L5.9,8.2L2.1,12z"/>
		<path class="st0" d="M13.2,12L9.3,8.1L8.1,9.3l3.9,3.9c0,0,0.1,0,0.1,0s0.1,0,0.1,0l1-1C13.3,12.2,13.3,12.1,13.2,12z"/>
	</g>
</g>
<g id="Layer_3">
</g>
</svg>
