<?xml version="1.0" encoding="utf-8"?>
<!-- Generator: Adobe Illustrator 23.0.4, SVG Export Plug-In . SVG Version: 6.00 Build 0)  -->
<svg version="1.1" id="Layer_1" xmlns="http://www.w3.org/2000/svg" xmlns:xlink="http://www.w3.org/1999/xlink" x="0px" y="0px"
	 viewBox="0 0 15 15" style="enable-background:new 0 0 15 15;" xml:space="preserve">
<style type="text/css">
	.st0{fill:#DA112A;}
	.st1{fill-rule:evenodd;clip-rule:evenodd;fill:#DA112A;}
</style>
<g>
	<path class="st0" d="M7.1,3.7h2c0.3,0,0.5-0.2,0.5-0.5V1c0-0.3-0.2-0.5-0.5-0.5h-2C6.8,0.5,6.6,0.7,6.6,1v2.2
		C6.6,3.5,6.8,3.7,7.1,3.7z"/>
	<path class="st1" d="M11.6,14.4H4.5c-0.3,0-0.5-0.3-0.5-0.5v-1.5c0-0.3,0.2-0.5,0.5-0.5h1.9c0.3,0,0.5-0.3,0.5-0.5V8.1
		c0-0.3-0.2-0.5-0.5-0.5H4.5C4.2,7.5,4,7.3,4,7V5.5c0-0.3,0.2-0.5,0.5-0.5h4.2c0.3,0,0.5,0.3,0.5,0.5v5.8c0,0.3,0.2,0.5,0.5,0.5h1.9
		c0.3,0,0.5,0.3,0.5,0.5v1.5C12,14.1,11.8,14.4,11.6,14.4"/>
</g>
</svg>
